<?xml version="1.0" standalone="no"?>
<!DOCTYPE svg PUBLIC "-//W3C//DTD SVG 20010904//EN" "http://www.w3.org/TR/2001/REC-SVG-20010904/DTD/svg10.dtd">
<svg version="1.0" xmlns="http://www.w3.org/2000/svg" width="2220.000000pt" height="400.000000pt"
        viewBox="0 0 2220.000000 400.000000" preserveAspectRatio="xMidYMid meet">

        <g transform="translate(0.000000,400.000000) scale(0.100000,-0.100000)" fill="#000000" stroke="none">
                <path d="M718 3334 c-24 -7 -26 -16 -69 -269 -22 -126 -114 -657 -205 -1180
-91 -522 -166 -968 -167 -991 -1 -23 4 -48 12 -57 18 -22 105 -48 277 -83 119
-24 144 -26 158 -15 21 17 209 400 384 781 196 427 350 767 374 823 14 32 26
47 40 47 10 0 74 -18 141 -39 226 -73 264 -76 292 -21 43 83 5 117 -227 209
-88 35 -108 47 -108 64 0 40 154 397 177 410 5 2 105 -18 223 -44 299 -68 473
-101 512 -97 46 4 49 32 6 58 -51 31 -132 53 -439 120 -156 34 -450 100 -654
146 -568 131 -680 152 -727 138z" />
                <path d="M8668 3315 c-160 -26 -390 -72 -560 -112 -87 -20 -108 -28 -108 -42
0 -40 537 -1857 664 -2246 35 -109 45 -131 63 -133 19 -3 262 86 288 106 13 9
-2 2397 -15 2430 -9 21 -15 22 -97 21 -49 0 -154 -11 -235 -24z" />
                <path d="M14210 3293 c-52 -8 -142 -30 -200 -49 -186 -62 -311 -143 -480 -313
-170 -171 -279 -348 -332 -538 -21 -73 -22 -100 -23 -413 0 -382 2 -398 80
-557 134 -272 351 -497 603 -622 154 -77 383 -131 557 -131 177 0 400 50 550
125 319 158 602 532 669 885 9 45 16 131 16 191 l0 109 -187 0 c-104 0 -198
-3 -210 -6 -19 -5 -24 -21 -43 -127 -54 -301 -91 -424 -177 -588 -188 -362
-486 -536 -788 -459 -286 73 -529 356 -635 740 -87 316 -75 705 32 1009 142
406 416 649 752 668 237 13 465 -85 536 -231 40 -84 22 -204 -46 -293 -63 -83
-169 -85 -237 -3 -50 59 -44 146 12 173 34 16 33 47 -1 67 -25 13 -31 13 -55
0 -35 -20 -71 -72 -79 -117 -10 -51 13 -136 50 -190 40 -59 118 -103 180 -103
90 0 222 104 276 216 34 72 39 181 10 256 -87 231 -443 361 -830 301z" />
                <path d="M7364 3001 c-157 -71 -221 -257 -144 -416 25 -51 87 -110 139 -133
91 -39 234 -9 300 63 71 77 93 226 50 339 -24 65 -96 136 -157 154 -58 17
-141 14 -188 -7z" />
                <path d="M9563 3006 c-51 -16 -116 -63 -149 -107 -118 -160 -32 -429 150 -470
48 -10 65 -10 117 5 136 37 203 91 215 172 19 132 -18 267 -95 342 -67 65
-150 85 -238 58z" />
                <path d="M19595 2615 c-366 -51 -480 -77 -513 -118 -8 -9 -16 -36 -19 -59 -8
-60 -24 -74 -94 -81 -102 -11 -147 -48 -135 -111 7 -36 42 -74 96 -104 l35
-19 -2 -115 c-1 -72 -17 -226 -42 -409 -55 -388 -70 -541 -60 -596 26 -140
160 -257 307 -270 88 -8 139 10 197 70 118 121 93 292 -48 337 -43 13 -99 7
-116 -14 -20 -24 0 -47 65 -76 67 -30 84 -51 84 -100 0 -71 -96 -106 -164 -60
-38 24 -76 87 -76 123 0 85 299 711 379 794 l34 35 84 -7 84 -7 42 44 c41 43
160 250 194 337 20 52 12 61 -63 61 -133 0 -155 48 -78 165 65 99 87 168 62
193 -16 16 -53 14 -253 -13z" />
                <path d="M7518 2292 c-221 -115 -538 -342 -538 -385 0 -18 89 -235 197 -477
155 -350 293 -629 314 -635 40 -13 322 74 395 121 26 18 27 19 20 99 -12 162
-130 784 -206 1096 -42 170 -63 229 -79 229 -6 0 -52 -22 -103 -48z" />
                <path d="M9679 2267 c-211 -109 -521 -323 -527 -363 -5 -36 254 -630 421 -965
l72 -144 43 -3 c78 -6 312 69 378 120 25 20 26 24 19 82 -22 200 -190 1077
-237 1241 -19 65 -27 81 -44 83 -12 2 -68 -21 -125 -51z" />
                <path d="M3057 2293 c-141 -47 -206 -242 -114 -341 36 -39 78 -55 142 -55 99
0 152 44 143 119 -5 43 -46 44 -106 4 -63 -42 -86 -37 -90 17 -3 34 2 47 27
75 24 27 36 33 69 32 77 -2 166 -74 217 -174 29 -58 43 -134 26 -144 -6 -4
-68 -11 -139 -15 -207 -14 -327 -67 -452 -197 -78 -82 -134 -186 -152 -279
-15 -85 8 -192 67 -312 56 -113 120 -183 207 -223 111 -52 179 -65 333 -65
214 1 333 41 457 154 31 28 65 51 75 51 12 0 30 -15 44 -37 36 -57 65 -56 193
11 207 108 286 170 286 222 0 52 -7 62 -304 424 -116 140 -247 300 -292 356
-131 160 -261 301 -307 333 -86 59 -228 78 -330 44z m394 -672 c75 -78 199
-329 229 -464 12 -53 12 -59 -14 -111 -48 -98 -164 -166 -298 -174 -69 -4 -81
-2 -120 21 -57 33 -184 166 -203 211 -31 73 -12 298 33 400 26 58 83 120 135
145 31 16 61 21 116 21 l75 0 47 -49z" />
                <path d="M6160 2295 c-115 -28 -273 -108 -366 -184 -27 -23 -59 -41 -71 -41
-12 0 -69 24 -125 53 l-103 52 -164 0 c-177 0 -173 -1 -185 57 -4 15 -15 29
-25 33 -16 5 -376 -76 -629 -141 -108 -28 -123 -73 -77 -245 13 -52 96 -316
185 -587 88 -271 160 -495 160 -498 0 -9 148 6 222 23 37 8 77 22 89 31 33 28
48 160 80 710 13 241 32 392 50 403 44 27 121 -3 180 -70 118 -133 155 -298
166 -749 3 -144 9 -264 12 -266 9 -6 278 22 319 33 92 25 110 70 93 236 -24
234 -71 455 -140 660 -23 65 -41 124 -41 131 0 16 198 132 257 150 118 37 234
-28 303 -169 111 -227 129 -581 45 -910 l-8 -28 224 3 c204 3 227 5 259 23 53
31 69 89 70 255 1 358 -109 671 -304 866 -155 154 -310 210 -476 169z" />
                <path d="M16445 2295 c-81 -18 -186 -58 -253 -96 -153 -88 -300 -246 -377
-404 -59 -122 -79 -199 -78 -315 1 -158 59 -302 190 -467 110 -139 254 -236
428 -289 78 -24 108 -27 225 -28 148 0 213 12 348 64 218 84 437 303 488 487
16 56 19 103 19 263 0 227 -8 258 -94 383 -121 175 -297 302 -524 379 -77 26
-110 32 -202 34 -69 2 -133 -2 -170 -11z m545 -246 c65 -16 142 -72 207 -149
74 -88 117 -164 138 -245 19 -76 20 -261 0 -335 -35 -133 -132 -273 -238 -343
-188 -125 -386 -96 -569 84 -56 55 -86 93 -108 142 -43 90 -63 209 -56 322 11
171 54 272 161 381 133 135 296 185 465 143z" />
                <path d="M18030 2304 c-165 -25 -263 -67 -344 -149 -118 -117 -155 -299 -94
-461 39 -106 134 -185 369 -309 217 -115 295 -163 354 -217 113 -103 108 -201
-15 -263 -162 -82 -396 -43 -477 79 -18 26 -33 58 -33 70 0 36 40 63 115 81
79 18 115 45 115 86 0 34 -24 49 -77 49 -110 -1 -252 -140 -253 -248 -1 -135
197 -252 425 -252 218 1 334 67 379 220 21 71 20 114 -4 193 -34 108 -111 199
-282 330 -143 111 -197 193 -198 302 0 106 57 190 175 260 123 71 273 85 353
32 61 -40 95 -97 100 -166 6 -81 -15 -126 -65 -140 -78 -22 -155 -7 -201 38
-16 16 -45 61 -66 100 -20 39 -41 71 -46 71 -28 0 -28 -153 1 -214 58 -124
206 -174 332 -112 62 30 110 78 126 125 18 56 14 219 -8 267 -22 48 -95 113
-167 148 -126 62 -375 100 -514 80z" />
                <path d="M10630 2265 c-64 -21 -114 -66 -149 -137 -69 -137 -17 -251 125 -273
97 -14 168 33 162 109 -3 36 -6 41 -30 44 -17 2 -42 -7 -65 -22 -21 -14 -45
-26 -55 -26 -44 0 -68 109 -29 130 57 30 187 -15 252 -87 43 -48 87 -120 89
-148 6 -62 -19 -75 -177 -85 -197 -14 -309 -59 -417 -167 -199 -198 -195 -556
6 -750 200 -191 537 -220 794 -67 55 32 75 50 132 118 17 20 30 26 50 24 23
-3 28 -9 34 -47 10 -57 25 -74 57 -66 58 14 384 210 429 258 l23 24 -57 79
c-198 276 -764 980 -827 1028 -79 61 -254 91 -347 61z m352 -651 c53 -27 97
-104 218 -389 l73 -170 -81 -76 c-107 -101 -170 -132 -273 -133 -68 -1 -84 3
-145 34 -80 41 -140 108 -175 197 -20 49 -24 76 -24 173 0 108 2 119 31 180
52 110 118 170 214 196 50 14 121 9 162 -12z" />
                <path d="M20475 2224 c-11 -3 -39 -12 -63 -20 -137 -50 -121 -311 24 -376 49
-21 81 -17 133 18 61 41 92 114 55 128 -37 14 -67 5 -98 -29 -43 -46 -90 -44
-116 6 -16 29 -3 56 42 90 94 67 204 16 277 -128 25 -49 36 -122 23 -142 -6
-9 -53 -18 -133 -28 -195 -22 -305 -65 -413 -164 -117 -107 -178 -241 -178
-394 0 -156 58 -287 176 -392 117 -104 233 -145 406 -144 171 0 309 45 439
140 71 52 103 71 121 71 6 0 26 -16 44 -36 31 -33 37 -36 71 -31 64 11 445
228 445 254 0 38 -673 861 -874 1068 -77 79 -141 105 -271 110 -49 2 -99 2
-110 -1z m381 -664 c23 -23 61 -88 109 -185 162 -332 166 -366 55 -469 -179
-165 -464 -104 -567 121 -18 39 -27 79 -30 137 -12 184 64 338 200 406 55 28
70 31 129 28 61 -3 71 -7 104 -38z" />
        </g>
</svg>