<?xml version="1.0" standalone="no"?>
<!DOCTYPE svg PUBLIC "-//W3C//DTD SVG 20010904//EN"
 "http://www.w3.org/TR/2001/REC-SVG-20010904/DTD/svg10.dtd">
<svg version="1.0" xmlns="http://www.w3.org/2000/svg"
 width="892.000000pt" height="911.000000pt" viewBox="0 0 892.000000 911.000000"
 preserveAspectRatio="xMidYMid meet">

<g transform="translate(0.000000,911.000000) scale(0.100000,-0.100000)"
fill="#000000" stroke="none">
<path d="M4390 8299 c-41 -11 -90 -18 -107 -15 -63 9 -224 -14 -300 -44 -71
-27 -143 -72 -143 -89 0 -4 29 -13 65 -19 61 -10 208 -72 221 -94 12 -18 -4
-18 -47 0 -107 45 -267 59 -377 33 -146 -36 -287 -140 -351 -262 -21 -38 -48
-70 -80 -93 -69 -51 -157 -149 -187 -208 -29 -57 -54 -132 -54 -164 0 -11 -12
-31 -26 -45 -37 -34 -64 -96 -64 -149 0 -25 -7 -56 -16 -68 -9 -13 -14 -25
-12 -28 3 -2 40 14 84 36 43 22 115 52 159 67 71 23 97 26 225 27 163 0 220
-11 350 -72 101 -48 189 -107 176 -119 -2 -2 -24 6 -50 17 -26 11 -90 32 -144
47 -90 26 -109 28 -277 27 -167 0 -187 -2 -270 -28 -86 -26 -251 -104 -241
-113 3 -3 42 0 87 6 99 13 206 14 213 2 6 -9 -6 -15 -133 -57 -46 -16 -86 -35
-89 -43 -3 -8 2 -53 11 -101 14 -69 17 -148 17 -387 0 -291 1 -301 21 -327 47
-60 52 -99 57 -466 3 -253 0 -370 -10 -440 -19 -138 -14 -413 9 -519 10 -47
23 -86 29 -88 6 -2 16 9 23 23 17 37 30 20 41 -52 16 -108 105 -320 155 -370
13 -14 15 -12 15 13 0 42 11 73 25 73 7 0 23 -27 35 -61 51 -135 178 -282 308
-356 31 -18 60 -33 63 -33 4 0 10 16 13 35 4 19 11 37 17 40 5 4 39 -21 76
-54 71 -66 197 -153 278 -193 116 -57 276 -98 386 -98 73 0 169 21 169 36 0 8
-4 14 -8 14 -4 0 -14 16 -21 36 -11 30 -11 38 0 49 14 12 231 125 241 125 3 0
9 -16 12 -35 4 -19 11 -37 16 -40 11 -7 114 78 168 140 83 95 136 190 197 358
20 56 34 52 42 -12 3 -22 9 -41 13 -41 26 0 120 202 145 310 10 41 20 88 24
104 9 41 24 42 39 4 6 -17 15 -29 18 -25 19 19 45 186 50 322 5 115 2 171 -10
240 -12 71 -16 162 -16 425 0 362 10 468 51 524 20 27 21 43 25 330 3 165 5
310 7 321 2 18 -3 20 -45 17 -27 -2 -48 -1 -48 2 0 3 25 22 57 42 103 66 149
124 98 124 -9 0 6 26 35 66 65 85 66 95 3 72 -18 -6 -35 -9 -38 -6 -3 3 8 31
25 63 16 31 30 64 30 71 0 24 -45 -15 -65 -55 -19 -40 -66 -103 -72 -97 -2 2
4 24 15 48 30 68 33 79 48 153 15 78 18 145 6 145 -4 0 -21 -22 -37 -50 -16
-27 -33 -50 -37 -50 -4 0 -8 24 -8 53 0 76 -20 171 -33 158 -6 -6 -14 -58 -17
-116 -6 -94 -11 -113 -45 -181 -26 -54 -58 -96 -111 -150 l-75 -75 34 -42 c53
-64 87 -137 87 -182 0 -40 -24 -115 -60 -186 -28 -53 -25 -68 18 -135 58 -88
79 -148 93 -263 16 -135 0 -337 -37 -461 -33 -110 -40 -139 -58 -233 -17 -87
-61 -181 -142 -303 -53 -80 -169 -227 -230 -294 -62 -68 -71 -85 -84 -160 -6
-41 -13 -82 -14 -90 -5 -26 -13 7 -25 105 -26 201 -53 238 -244 333 -230 115
-228 114 -361 118 -117 3 -121 3 -210 -32 -114 -45 -293 -138 -333 -173 -52
-46 -77 -115 -97 -270 l-13 -96 -11 53 c-7 29 -12 67 -12 85 -1 26 -18 53 -91
137 -225 260 -334 436 -364 585 -18 90 -61 255 -79 300 -7 19 -11 110 -11 255
0 200 2 231 20 275 22 57 80 161 95 170 19 12 10 53 -27 131 -33 68 -38 89
-38 149 0 58 5 81 32 135 36 73 91 137 127 146 22 5 118 -4 256 -26 30 -5 129
-18 220 -29 91 -11 202 -25 247 -31 124 -16 705 -13 844 4 186 23 290 52 414
113 150 74 219 161 250 316 17 86 17 104 6 179 -18 108 -36 160 -78 227 -39
61 -113 135 -157 158 -27 14 -28 14 -21 -3 53 -130 61 -283 21 -406 -27 -83
-51 -127 -110 -206 -67 -90 -81 -83 -31 15 25 49 56 130 71 181 23 82 26 107
22 215 -3 112 -6 127 -34 188 -39 81 -134 180 -241 250 -92 60 -116 64 -75 12
47 -60 88 -142 113 -223 19 -62 23 -98 24 -210 0 -183 -32 -307 -117 -446 -40
-67 -118 -167 -124 -161 -3 2 11 31 29 63 137 233 184 516 127 749 -7 28 -30
87 -51 132 -108 230 -347 338 -599 272z m-212 -138 c329 -91 529 -420 483
-796 -14 -113 -39 -220 -65 -275 l-16 -35 5 35 c3 19 8 96 11 170 10 244 -41
440 -162 620 -62 94 -150 173 -262 239 -51 30 -92 56 -92 58 0 7 34 2 98 -16z
m422 -21 c70 -28 160 -90 205 -142 75 -88 136 -225 150 -337 5 -44 3 -41 -44
54 -28 55 -57 109 -66 119 -18 23 -31 15 -17 -11 36 -69 39 -262 6 -363 l-18
-55 -7 135 c-7 145 -28 230 -88 348 -33 64 -115 178 -169 235 -42 43 -30 48
48 17z m-697 -329 c233 -105 410 -333 480 -616 24 -94 44 -226 34 -215 -2 3
-30 48 -62 100 -206 342 -480 560 -787 627 -43 9 -78 20 -78 25 0 13 113 9
189 -7 146 -31 282 -92 385 -174 22 -17 41 -29 44 -27 6 6 -61 103 -100 146
-47 51 -166 150 -181 150 -8 0 -7 3 3 9 8 6 17 8 20 7 3 -2 27 -13 53 -25z
m-133 -420 c100 -26 196 -70 283 -131 70 -48 195 -165 186 -174 -2 -2 -40 17
-85 43 -97 57 -279 132 -389 160 -156 39 -272 52 -448 50 -92 -1 -170 1 -173
4 -7 7 113 42 191 56 33 6 71 13 85 15 59 11 277 -4 350 -23z m745 -2511 c17
-5 50 -12 75 -16 24 -3 51 -10 60 -14 8 -5 37 -16 63 -25 26 -9 61 -28 76 -41
34 -28 75 -118 67 -148 -6 -25 -94 -79 -172 -107 -100 -34 -204 -21 -204 26 0
16 9 26 30 35 16 7 35 18 41 26 10 12 -15 14 -160 14 -105 0 -171 -4 -171 -10
0 -5 12 -17 28 -27 33 -22 42 -33 35 -49 -9 -24 -62 -37 -128 -32 -71 6 -195
60 -236 104 -21 23 -22 27 -10 62 31 90 78 133 176 162 187 55 329 68 430 40z"/>
<path d="M2215 7901 c-81 -21 -153 -78 -176 -140 -16 -39 -13 -122 4 -161 44
-101 150 -150 260 -119 42 11 112 76 139 127 21 40 38 40 82 2 49 -44 70 -105
63 -180 -12 -111 -73 -191 -175 -231 -50 -20 -75 -22 -197 -22 -115 0 -159 5
-250 27 -60 14 -121 30 -135 35 -14 5 -64 24 -113 42 -48 17 -90 29 -94 26 -7
-8 551 -2255 574 -2308 26 -63 86 -76 133 -29 30 30 27 57 -35 260 -8 25 -39
126 -69 225 -30 99 -67 218 -81 265 -15 47 -37 121 -50 165 -13 44 -55 188
-95 320 -69 232 -83 282 -148 520 -38 137 -97 361 -106 398 -5 20 -3 27 9 27
14 0 98 -32 160 -60 116 -53 293 -79 432 -63 225 26 343 124 389 324 28 123
-2 268 -74 364 -49 64 -146 138 -219 165 -62 24 -177 35 -228 21z"/>
<path d="M6360 7888 c-120 -42 -232 -134 -281 -230 -46 -89 -61 -229 -35 -325
40 -150 118 -233 266 -284 54 -18 88 -22 200 -23 155 -1 227 13 380 77 52 21
108 41 124 44 24 5 27 3 22 -13 -3 -11 -17 -62 -30 -114 -45 -173 -77 -294
-108 -400 -16 -58 -36 -130 -45 -160 -8 -30 -27 -98 -43 -150 -16 -52 -47
-158 -70 -235 -23 -77 -64 -212 -90 -300 -27 -88 -76 -250 -110 -360 -33 -110
-71 -236 -85 -281 -33 -106 -33 -146 1 -173 36 -29 70 -26 103 7 24 24 53 133
315 1180 158 634 286 1156 283 1159 -6 5 -64 -13 -177 -56 -122 -46 -277 -74
-426 -75 l-141 -1 -69 35 c-55 28 -76 46 -107 90 -70 102 -61 239 20 310 43
38 60 36 86 -10 62 -114 177 -159 282 -111 82 37 125 105 125 195 0 70 -25
123 -77 163 -56 43 -90 55 -173 59 -60 4 -88 0 -140 -18z"/>
<path d="M2334 6811 c-31 -14 -47 -30 -64 -65 -20 -43 -22 -57 -17 -159 3 -62
10 -132 15 -157 15 -72 59 -254 97 -400 69 -262 87 -344 128 -575 52 -286 80
-619 93 -1099 7 -256 10 -266 78 -266 49 0 96 -11 90 -21 -3 -5 -20 -9 -38 -9
-50 0 -92 -18 -106 -45 -14 -27 -31 -30 -76 -16 -122 39 -389 102 -406 96 -7
-3 -22 -19 -33 -35 -11 -16 -23 -26 -28 -21 -7 7 0 47 29 155 12 42 12 47 -1
36 -8 -7 -24 -39 -36 -71 -26 -70 -45 -78 -35 -16 18 119 19 117 -9 62 -14
-27 -25 -56 -25 -63 0 -7 -4 -10 -10 -7 -15 9 -12 51 9 135 11 41 16 79 12 83
-9 9 -342 131 -591 215 -831 283 -805 275 -846 267 -58 -10 -154 -128 -154
-187 0 -21 3 -20 28 12 47 61 90 105 96 99 3 -3 -5 -37 -19 -75 -25 -69 -31
-105 -18 -117 3 -4 15 8 26 26 35 58 91 127 103 127 9 0 7 -16 -7 -55 -10 -30
-19 -74 -19 -97 l1 -43 25 49 c26 51 67 106 90 119 10 6 11 1 2 -25 -15 -49
-38 -141 -38 -155 0 -26 20 -11 41 30 31 60 86 130 94 117 3 -5 3 -16 -2 -22
-24 -38 -42 -158 -23 -158 6 0 10 5 10 11 0 5 18 37 40 69 63 93 81 95 49 7
-11 -31 -19 -69 -17 -84 3 -27 5 -25 36 26 36 57 82 112 82 96 0 -6 -9 -39
-20 -73 -21 -66 -26 -112 -12 -112 4 0 22 27 41 60 33 57 81 113 81 94 0 -5
-9 -34 -20 -64 -23 -62 -28 -149 -7 -117 7 11 28 45 48 76 37 57 69 92 69 74
0 -5 -9 -37 -21 -70 -11 -34 -19 -77 -17 -95 l3 -33 22 45 c24 48 79 120 93
120 4 0 -1 -27 -11 -61 -10 -33 -19 -73 -19 -87 0 -24 4 -21 29 23 37 62 77
112 85 104 3 -3 -3 -30 -14 -60 -31 -84 -24 -162 8 -90 19 44 85 127 90 113 2
-7 -3 -33 -11 -59 -20 -64 -28 -121 -17 -128 5 -3 19 15 31 41 23 44 88 128
95 122 2 -2 -6 -32 -16 -67 -11 -34 -20 -79 -20 -99 l0 -37 29 52 c37 66 94
139 99 125 1 -5 -4 -27 -13 -48 -16 -40 -33 -154 -22 -154 4 0 20 26 36 58 16
31 44 73 61 92 35 39 35 37 11 -55 -6 -22 -10 -53 -10 -70 l0 -30 17 31 c31
55 83 124 94 124 6 0 7 -7 3 -17 -20 -50 -35 -112 -35 -143 l0 -35 34 55 c41
67 75 110 86 110 5 0 0 -26 -11 -59 -14 -40 -19 -78 -17 -121 l3 -63 60 -25
c69 -30 70 -30 62 -38 -20 -20 -646 179 -1419 452 -75 27 -139 46 -143 42 -16
-15 21 -51 83 -79 156 -72 515 -201 832 -299 58 -17 130 -40 160 -50 121 -40
287 -90 320 -96 19 -4 40 -10 45 -14 6 -4 57 -19 115 -34 58 -15 116 -32 130
-36 57 -19 440 -110 464 -110 19 0 26 5 26 19 0 24 10 51 19 51 4 0 13 -35 20
-77 19 -112 47 -162 99 -178 138 -42 214 316 213 1000 0 444 -28 822 -86 1190
-35 215 -46 272 -90 440 -61 237 -85 285 -139 285 -11 0 -47 -11 -81 -25 -33
-13 -92 -27 -130 -30 l-70 -6 35 16 c19 10 67 32 105 51 131 61 149 112 77
208 -42 56 -107 96 -153 96 -13 0 -42 -9 -65 -19z m128 -125 c10 -7 21 -27 24
-44 5 -24 1 -36 -19 -56 -33 -33 -61 -33 -92 -1 -31 30 -32 62 -3 92 24 25 64
30 90 9z m152 -343 c39 -103 77 -210 86 -243 91 -356 123 -550 152 -910 18
-226 17 -827 -1 -898 -7 -29 -16 -51 -18 -48 -3 3 -9 132 -14 288 -12 412 -26
618 -59 878 -19 148 -41 296 -56 380 -8 47 -19 108 -24 135 -13 75 -37 185
-70 323 -33 133 -34 142 -22 142 4 0 16 -21 26 -47z m157 -2474 c16 -30 -3
-69 -34 -69 -29 0 -47 17 -47 45 0 45 60 63 81 24z"/>
<path d="M6314 6811 c-58 -26 -134 -123 -134 -170 0 -33 54 -85 124 -119 36
-18 71 -32 78 -32 7 -1 24 -8 38 -16 23 -14 21 -15 -45 -9 -38 3 -97 17 -130
30 -126 51 -139 37 -213 -220 -59 -208 -121 -567 -152 -890 -17 -182 -40 -630
-40 -790 0 -165 23 -525 40 -649 30 -208 91 -346 152 -346 60 0 108 65 124
167 5 27 9 51 10 56 1 4 2 14 3 22 2 28 20 15 27 -20 7 -39 25 -44 93 -25 20
5 92 23 161 40 556 134 1493 434 1818 581 35 16 66 29 69 29 9 0 32 34 33 49
0 18 -16 13 -175 -44 -579 -210 -1349 -455 -1387 -442 -12 4 42 32 108 58 27
9 27 10 21 87 -3 42 -12 94 -21 114 -19 44 -19 48 -6 48 10 0 64 -74 97 -134
l22 -41 1 36 c0 20 -9 62 -20 95 -23 68 -23 74 -11 74 6 0 33 -35 60 -77 42
-63 51 -72 51 -51 0 14 -9 55 -20 89 -10 35 -17 65 -15 67 8 8 51 -46 89 -112
21 -36 41 -66 43 -66 9 0 -8 111 -23 145 -35 86 -6 72 58 -26 57 -88 69 -86
44 8 -31 116 -31 112 7 71 19 -21 48 -64 65 -95 l31 -58 1 46 c0 26 -7 66 -15
89 -8 23 -15 52 -15 63 0 19 1 19 18 4 10 -10 36 -47 58 -84 38 -65 39 -66 42
-37 2 18 -6 59 -17 92 -24 70 -24 72 -12 72 6 0 33 -35 61 -77 l52 -78 -7 48
c-3 26 -13 64 -21 83 -35 83 17 40 79 -66 28 -48 32 -52 35 -31 3 20 -17 111
-35 158 -3 7 0 13 5 13 6 0 34 -35 62 -77 29 -43 54 -80 57 -83 10 -9 -7 98
-22 141 -9 23 -13 45 -9 48 8 8 48 -42 82 -101 15 -27 31 -48 35 -48 11 0 -2
86 -19 127 -8 18 -14 38 -14 44 0 22 51 -34 84 -91 30 -54 31 -54 34 -25 1 17
-6 57 -17 90 -11 33 -17 62 -15 65 8 8 60 -59 88 -114 17 -32 27 -44 31 -35 5
15 -15 127 -30 162 -4 10 -3 17 4 17 13 0 65 -69 93 -124 13 -26 22 -35 28
-27 8 13 -9 106 -28 154 -9 21 -9 27 1 27 14 -1 36 -30 84 -109 31 -51 33 -53
33 -25 0 26 -8 59 -36 154 -7 25 -7 25 25 -5 17 -16 48 -53 68 -82 57 -83 64
-58 21 70 -11 32 -17 61 -13 65 6 7 43 -31 97 -99 23 -29 27 -31 28 -14 0 36
-69 140 -113 168 -49 32 -69 33 -139 8 -29 -10 -116 -39 -193 -64 -77 -25
-266 -89 -420 -142 -154 -53 -300 -103 -325 -112 -92 -31 -326 -117 -369 -135
-40 -17 -43 -20 -36 -46 30 -108 39 -178 26 -186 -6 -4 -11 -1 -11 7 0 7 -11
35 -25 63 l-26 49 6 -45 c3 -25 8 -59 10 -77 9 -56 -11 -44 -34 20 -22 61 -51
112 -51 89 0 -7 9 -45 20 -84 11 -40 20 -86 20 -102 l0 -30 -33 36 -33 36 -64
-14 c-110 -23 -122 -25 -247 -60 -67 -19 -129 -34 -137 -34 -9 0 -21 10 -27
23 -12 27 -60 47 -112 47 -20 0 -37 4 -37 9 0 9 39 17 115 23 19 2 33 11 41
26 7 13 13 128 18 295 13 540 52 912 136 1282 12 55 73 297 124 495 13 52 29
120 35 150 6 30 18 89 26 130 36 181 12 304 -69 341 -52 23 -80 23 -132 0z
m96 -138 c25 -32 20 -69 -12 -95 -27 -23 -49 -23 -82 3 -50 39 -24 119 39 119
25 0 39 -7 55 -27z m-244 -430 c-50 -212 -97 -454 -117 -603 -4 -36 -13 -94
-19 -130 -30 -182 -64 -648 -75 -1010 -4 -129 -11 -244 -15 -255 -18 -49 -33
245 -27 550 9 532 51 877 151 1250 43 162 120 364 133 351 3 -2 -11 -71 -31
-153z m-92 -2369 c19 -18 20 -28 6 -55 -20 -37 -80 -18 -80 26 0 42 44 59 74
29z"/>
<path d="M1115 6506 c-81 -37 -137 -114 -164 -222 -29 -121 58 -284 176 -330
66 -26 175 -15 256 24 71 35 174 124 233 202 21 27 43 50 49 50 10 0 45 -111
45 -143 0 -9 -6 -22 -13 -29 -151 -158 -358 -440 -487 -663 -69 -119 -189
-361 -219 -440 -11 -27 -22 -58 -26 -67 -5 -13 2 -21 30 -32 61 -26 67 -22 99
57 40 99 163 346 226 454 109 184 249 376 389 536 l35 38 12 -33 c15 -43 44
-170 44 -196 0 -11 -6 -27 -13 -34 -38 -38 -197 -262 -265 -375 -89 -147 -141
-245 -206 -390 -67 -150 -67 -147 -10 -167 26 -9 51 -13 55 -9 4 5 30 63 59
130 91 214 265 505 407 683 9 11 22 -29 47 -144 l27 -122 -59 -95 c-101 -161
-166 -286 -257 -492 -9 -21 -15 -40 -13 -41 9 -8 99 -38 101 -35 2 2 21 45 42
94 64 147 199 395 216 395 11 0 59 -208 59 -259 0 -16 -21 -71 -46 -122 -40
-80 -74 -161 -74 -176 0 -7 69 -33 89 -33 12 0 21 9 25 25 9 37 95 217 113
237 22 25 16 55 -86 423 -114 414 -148 538 -177 645 -105 394 -137 506 -143
513 -4 4 -19 -7 -33 -25 -113 -146 -261 -257 -384 -288 -45 -11 -56 -11 -98 5
-28 11 -61 34 -82 58 -29 35 -34 48 -34 93 0 35 5 58 16 69 15 14 19 14 49 -5
21 -13 50 -20 83 -20 43 0 57 5 86 30 81 72 70 182 -24 230 -51 26 -94 25
-155 -4z"/>
<path d="M7526 6520 c-79 -24 -118 -116 -81 -193 34 -72 126 -97 205 -57 35
18 40 18 54 4 11 -10 16 -34 16 -68 0 -46 -5 -58 -35 -94 -26 -30 -51 -46 -88
-58 -47 -14 -58 -15 -109 -1 -99 26 -267 153 -354 267 -21 28 -41 47 -45 42
-7 -7 -15 -33 -44 -137 -46 -168 -58 -214 -67 -245 -5 -19 -13 -48 -17 -65 -8
-27 -31 -111 -75 -275 -20 -73 -150 -550 -183 -670 -42 -152 -42 -149 15 -258
27 -54 57 -119 67 -145 10 -26 21 -50 26 -52 8 -5 99 31 99 39 0 8 -21 55 -76
174 l-53 113 25 117 c29 138 33 152 42 152 19 0 178 -298 232 -433 20 -52 25
-58 46 -53 49 13 74 26 74 40 0 44 -146 336 -257 514 l-65 102 17 82 c25 123
41 182 51 185 11 3 119 -148 206 -287 84 -136 154 -268 213 -405 26 -60 50
-113 54 -116 8 -9 101 19 101 31 0 12 -70 173 -123 280 -95 195 -306 523 -409
634 -10 11 -16 27 -14 35 3 9 14 58 27 109 12 51 26 95 32 99 12 7 28 -11 153
-167 96 -119 206 -281 297 -435 51 -88 159 -308 196 -402 22 -55 39 -83 49
-83 34 0 82 24 82 42 0 9 -21 65 -46 124 -152 358 -346 662 -626 987 -37 43
-68 88 -68 100 0 41 33 137 46 137 8 0 14 -4 14 -10 0 -5 41 -52 91 -105 118
-122 198 -166 319 -173 94 -5 147 15 204 78 64 71 81 115 81 210 0 76 -4 91
-32 146 -41 78 -99 129 -165 143 -56 12 -62 12 -102 1z"/>
<path d="M3534 6167 c-22 -12 -52 -31 -65 -42 -32 -26 -80 -90 -74 -97 3 -3
36 4 73 15 58 17 97 20 292 20 141 0 252 -4 298 -12 91 -16 102 -9 73 47 -23
44 -43 62 -49 44 -2 -7 -22 -12 -44 -12 -50 0 -350 37 -403 50 -53 13 -54 13
-101 -13z"/>
<path d="M5120 6179 c-47 -12 -344 -49 -397 -49 -24 0 -43 5 -43 10 0 6 -5 10
-10 10 -15 0 -50 -62 -50 -89 0 -22 3 -23 43 -17 203 30 484 31 618 0 38 -9
74 -14 80 -12 19 6 -85 112 -133 136 -49 24 -55 24 -108 11z"/>
<path d="M767 4138 c-19 -75 -37 -289 -39 -453 l-3 -190 51 -3 51 -3 7 178 c6
161 10 217 32 404 7 63 2 70 -62 83 -27 6 -32 4 -37 -16z"/>
<path d="M7950 4147 c-33 -11 -35 -15 -38 -61 -2 -26 1 -69 7 -95 5 -25 15
-149 22 -274 l12 -228 51 3 51 3 -3 185 c-3 237 -32 481 -56 479 -6 0 -27 -5
-46 -12z"/>
<path d="M1070 4053 c0 -5 -7 -71 -15 -148 -8 -77 -15 -204 -15 -283 l0 -143
53 3 52 3 6 190 c4 105 12 225 18 268 6 43 11 81 11 83 0 17 -110 44 -110 27z"/>
<path d="M7626 4047 c-27 -11 -28 -14 -22 -62 14 -115 25 -277 25 -388 l1
-118 53 3 52 3 3 110 c3 100 -10 310 -25 421 -5 40 -8 44 -32 43 -14 -1 -39
-6 -55 -12z"/>
<path d="M1381 3847 c-6 -62 -11 -170 -11 -240 l0 -127 53 0 54 0 7 198 c4
108 9 209 13 225 5 24 1 29 -31 42 -70 30 -72 28 -85 -98z"/>
<path d="M7311 3947 l-33 -10 6 -71 c3 -39 8 -142 12 -228 l6 -158 56 0 55 0
-6 178 c-4 97 -10 205 -13 240 -7 69 -13 72 -83 49z"/>
<path d="M2940 3865 c-5 -12 -10 -37 -12 -56 l-3 -34 105 -7 c58 -3 117 -9
131 -13 14 -4 61 -33 104 -66 43 -32 84 -59 91 -59 26 0 36 38 19 69 -13 26
-63 71 -79 71 -3 0 -29 11 -58 24 -51 24 -141 54 -241 81 -47 12 -49 12 -57
-10z"/>
<path d="M5790 3879 c-14 -4 -74 -24 -135 -44 -144 -48 -208 -79 -240 -116
-28 -34 -32 -61 -10 -79 19 -16 42 -7 95 40 76 68 121 85 235 88 55 2 105 5
111 7 14 4 -7 108 -22 111 -5 1 -20 -2 -34 -7z"/>
<path d="M1694 3823 c-5 -26 -8 -115 -9 -198 l0 -150 53 -3 52 -3 0 58 c0 32
3 115 7 185 l6 127 -27 11 c-71 27 -74 26 -82 -27z"/>
<path d="M7023 3857 c-18 -7 -36 -16 -40 -22 -4 -5 -6 -89 -3 -185 l5 -175 52
-3 c49 -3 53 -2 59 24 7 27 -1 237 -13 327 -6 50 -10 52 -60 34z"/>
<path d="M1960 3570 l0 -100 45 0 c49 0 62 17 18 22 -22 2 -29 9 -31 30 -3 21
1 27 19 30 31 4 36 26 7 30 -17 2 -24 11 -26 31 -3 24 0 27 27 27 21 0 31 5
31 15 0 11 -12 15 -45 15 l-45 0 0 -100z"/>
<path d="M2128 3659 c-11 -6 -18 -22 -18 -42 0 -41 9 -54 43 -62 20 -5 27 -13
27 -31 0 -28 -24 -32 -39 -6 -8 14 -12 15 -23 4 -22 -22 3 -47 48 -47 l39 0 3
47 c3 44 2 46 -26 53 -31 6 -46 33 -31 56 6 11 11 10 27 -4 24 -22 32 -22 32
1 0 37 -44 54 -82 31z"/>
<path d="M2270 3655 c0 -8 7 -15 15 -15 11 0 15 -18 17 -82 2 -54 7 -83 16
-86 9 -3 12 17 12 77 0 70 2 82 20 91 31 16 14 30 -36 30 -32 0 -44 -4 -44
-15z"/>
<path d="M6323 3664 c-19 -8 -16 -54 2 -54 8 0 15 7 15 15 0 20 26 19 34 -1
10 -27 7 -34 -29 -55 -31 -18 -35 -26 -35 -61 l0 -39 47 3 c37 2 49 7 51 21 3
16 -1 17 -32 11 -32 -5 -36 -4 -36 14 0 12 11 24 30 32 56 23 52 113 -5 117
-17 1 -36 0 -42 -3z"/>
<path d="M6480 3651 c-11 -21 -13 -122 -4 -159 6 -20 12 -23 48 -20 l41 3 3
83 c2 53 -1 89 -9 98 -17 21 -66 18 -79 -5z m58 -84 c3 -62 1 -67 -18 -67 -18
0 -20 6 -20 63 0 35 3 67 7 71 17 17 28 -6 31 -67z"/>
<path d="M6640 3651 c0 -11 5 -23 10 -26 6 -3 10 -40 10 -81 0 -56 3 -75 13
-71 8 2 12 31 12 98 0 90 -1 94 -22 97 -17 3 -23 -2 -23 -17z"/>
<path d="M6775 3660 c-10 -16 -7 -172 4 -183 5 -5 24 -7 42 -5 l34 3 0 95 0
95 -37 3 c-20 2 -39 -2 -43 -8z m53 -47 c-3 -30 -23 -41 -31 -18 -9 21 2 45
20 45 10 0 13 -9 11 -27z m2 -88 c0 -28 -24 -34 -34 -9 -8 20 1 34 20 34 8 0
14 -10 14 -25z"/>
<path d="M648 3203 l-3 -148 -235 -5 c-202 -4 -235 -7 -232 -20 4 -17 112
-317 209 -580 l65 -175 -15 -50 c-8 -27 -25 -77 -37 -110 -24 -66 -137 -385
-150 -425 -4 -14 -22 -63 -39 -110 -17 -47 -31 -93 -31 -103 0 -16 29 -17 508
-15 l507 3 3 152 3 152 932 4 c512 3 1054 10 1204 15 176 6 348 6 490 0 120
-6 1013 -12 1985 -15 l1767 -4 3 -152 3 -152 508 -3 c579 -3 524 -14 482 98
-13 36 -40 112 -60 170 -20 58 -40 113 -45 122 -6 10 -10 23 -10 30 0 7 -11
42 -24 78 -72 193 -106 292 -106 309 0 11 13 55 29 98 16 43 46 122 65 175 20
53 40 107 45 120 5 13 21 55 34 93 14 39 42 115 62 169 20 54 34 105 31 112
-4 11 -55 14 -233 16 l-228 3 -3 148 -3 147 -3739 0 -3739 0 -3 -147z m3198
-10 c-5 -17 -55 -267 -70 -355 -8 -42 2 -48 28 -19 47 52 206 86 294 62 57
-16 110 -65 139 -129 18 -42 23 -70 23 -138 0 -188 -58 -344 -169 -455 -58
-58 -76 -70 -135 -88 -37 -12 -85 -21 -105 -21 -62 0 -137 28 -177 65 -20 19
-38 35 -40 35 -1 0 -5 -18 -9 -40 l-7 -40 -64 0 c-35 0 -64 4 -64 9 0 6 18
104 40 218 23 114 70 359 106 543 36 184 68 343 70 353 4 14 17 17 75 17 62 0
70 -2 65 -17z m3010 -38 c35 -54 -14 -128 -86 -128 -51 0 -72 24 -66 72 8 52
41 81 93 81 34 0 46 -5 59 -25z m-4885 -46 c80 -38 103 -74 108 -172 5 -125
-41 -212 -146 -274 -43 -25 -55 -43 -30 -43 17 0 75 -57 93 -92 36 -69 22
-192 -33 -286 -34 -57 -107 -119 -179 -151 -57 -25 -68 -26 -312 -31 -140 -3
-255 -3 -257 0 -2 3 7 59 20 125 14 66 56 284 95 485 39 201 75 389 81 418
l11 53 246 -3 c242 -3 248 -3 303 -29z m-1337 -152 c10 -7 17 -22 14 -33 -3
-18 -14 -19 -171 -22 l-167 -2 -11 26 c-7 21 -7 29 3 36 23 14 312 10 332 -5z
m7841 -22 l0 -30 -170 0 -170 0 -3 24 c-2 13 2 28 10 32 7 5 85 8 173 6 l160
-2 0 -30z m-997 -51 c76 -31 122 -99 122 -180 0 -17 -19 -123 -41 -235 -25
-123 -42 -240 -44 -294 l-3 -90 -44 -2 c-23 -2 -58 0 -75 3 -30 4 -33 8 -33
40 l0 35 -27 -19 c-65 -44 -127 -66 -205 -70 -69 -4 -84 -2 -131 21 -73 36
-100 76 -105 154 -7 101 32 182 117 245 71 52 133 69 286 79 77 5 143 13 148
18 4 4 10 30 13 57 7 58 -11 104 -52 131 -38 24 -138 22 -191 -5 -36 -19 -86
-66 -95 -91 -3 -10 -124 -18 -134 -9 -11 12 24 74 66 116 50 51 124 91 200
109 66 15 176 9 228 -13z m-2536 -10 c59 -19 110 -76 134 -147 13 -40 15 -70
10 -146 -10 -154 25 -137 -289 -145 -197 -5 -273 -10 -279 -19 -13 -19 2 -118
23 -157 11 -20 36 -47 56 -60 31 -21 48 -25 112 -25 62 1 85 6 126 27 28 14
59 35 69 47 26 29 47 26 81 -9 l29 -30 -45 -41 c-24 -22 -73 -54 -109 -72 -61
-30 -70 -32 -180 -32 -123 0 -158 11 -220 67 -92 84 -110 230 -53 413 43 138
134 249 248 306 103 50 182 57 287 23z m832 -4 c24 -11 57 -38 73 -58 26 -34
28 -44 28 -122 0 -58 -12 -146 -39 -280 -23 -117 -38 -222 -38 -262 l1 -68
-75 0 -74 0 0 35 c0 19 -2 35 -5 35 -2 0 -26 -14 -52 -30 -123 -78 -273 -80
-362 -3 -91 77 -80 224 24 328 85 86 158 111 352 121 l122 7 7 53 c3 30 3 65
0 80 -27 107 -221 109 -310 4 -14 -17 -26 -36 -26 -41 0 -5 -31 -9 -70 -9 -38
0 -70 2 -70 5 0 18 44 86 77 118 105 106 313 147 437 87z m756 3 c0 -16 -5
-44 -10 -64 l-10 -36 -68 -5 c-130 -10 -191 -62 -216 -185 -9 -43 -23 -109
-31 -148 -8 -38 -27 -134 -42 -212 l-27 -143 -68 0 c-44 0 -68 4 -68 11 0 11
32 175 65 339 9 41 32 161 53 265 l37 190 68 3 69 3 -7 -43 -7 -43 28 26 c51
47 104 68 172 69 61 0 62 0 62 -27z m-3022 8 c11 -7 11 -19 1 -70 l-12 -61
-65 0 c-79 0 -138 -25 -181 -77 -25 -31 -34 -61 -76 -276 -26 -133 -51 -263
-57 -289 l-10 -48 -70 0 c-68 0 -70 1 -65 23 5 19 73 367 136 692 l17 90 68 3
68 3 -7 -43 -7 -43 28 26 c50 44 64 52 112 65 56 15 102 17 120 5z m3299 -13
c-5 -20 -30 -147 -136 -693 l-17 -90 -67 -3 c-59 -3 -67 -1 -67 15 0 10 18
108 39 218 22 110 53 274 71 365 17 91 33 175 36 188 4 20 10 22 75 22 69 0
71 -1 66 -22z m-4037 -18 c50 -28 86 -83 95 -145 6 -35 -33 -268 -75 -452 -6
-23 -10 -76 -10 -118 l0 -76 -72 3 -73 3 -3 38 -3 37 -29 -20 c-67 -48 -139
-72 -213 -73 -112 0 -181 37 -218 118 -24 52 -24 82 2 158 50 149 196 227 430
227 122 0 119 -3 119 101 0 82 -41 119 -133 119 -88 0 -160 -38 -193 -101 -14
-27 -18 -29 -79 -29 -70 0 -79 10 -52 55 46 78 112 129 212 167 76 28 233 22
295 -12z m-2124 -54 c3 -14 3 -30 -1 -35 -4 -7 -57 -11 -140 -11 -126 0 -135
1 -145 21 -24 44 -10 49 139 49 l141 0 6 -24z m7780 10 c3 -8 0 -24 -6 -35
-10 -21 -17 -21 -148 -19 -123 3 -137 5 -140 21 -9 44 0 47 148 47 112 0 142
-3 146 -14z m-7780 -160 c3 -14 3 -30 -1 -35 -4 -7 -49 -11 -114 -11 -103 0
-108 1 -120 24 -22 40 -8 46 114 46 113 0 115 0 121 -24z m7727 18 c3 -3 1
-19 -5 -35 l-10 -29 -114 0 -114 0 0 28 c0 16 3 32 7 35 8 9 227 9 236 1z
m-7728 -184 c0 -24 -2 -25 -78 -28 -83 -3 -107 6 -107 40 0 17 7 19 93 16 91
-3 92 -3 92 -28z m7675 17 c0 -7 -6 -21 -13 -31 -10 -14 -26 -16 -92 -14 -79
3 -80 3 -83 31 l-3 27 95 0 c72 0 96 -3 96 -13z m-7682 -143 c7 -2 12 -14 10
-26 -3 -20 -10 -23 -61 -26 -54 -3 -58 -1 -67 23 -6 15 -8 31 -5 35 5 8 92 4
123 -6z m7578 6 c44 0 45 -1 42 -27 -3 -26 -6 -28 -57 -31 -62 -4 -76 6 -67
43 5 19 11 25 22 21 9 -3 36 -6 60 -6z m-7578 -152 c7 -7 12 -22 12 -35 0 -22
-3 -23 -76 -23 -74 0 -75 1 -68 23 3 12 11 28 16 35 13 15 100 16 116 0z
m7622 -7 c23 -44 14 -51 -60 -51 -62 0 -70 2 -70 19 0 43 10 51 66 51 42 0 55
-4 64 -19z m57 -161 c20 -39 8 -45 -87 -46 -87 -2 -90 -1 -96 22 -11 44 -2 49
87 48 76 -2 85 -4 96 -24z m-7669 -7 c3 -17 -3 -26 -23 -33 -31 -12 -162 -14
-168 -2 -3 4 -3 20 0 35 l5 28 92 -3 c86 -3 91 -4 94 -25z m-3 -153 c0 -25 0
-25 -114 -30 -62 -3 -118 -2 -123 1 -6 4 -8 18 -4 33 l7 27 117 -3 117 -3 0
-25z m7725 23 c0 -5 3 -18 6 -31 l6 -23 -123 3 -124 3 -3 28 -3 27 120 0 c67
0 121 -3 121 -7z m-7257 -154 c6 -9 7 -24 4 -33 -6 -14 -44 -16 -387 -16
l-380 0 0 25 c0 13 8 28 18 34 10 6 152 9 376 8 318 -2 360 -4 369 -18z m7301
5 c9 -8 16 -24 16 -35 0 -19 -10 -19 -382 -17 -359 3 -383 4 -386 21 -9 46 -2
47 379 47 312 0 360 -2 373 -16z m-7308 -142 c5 -4 10 -19 11 -34 l2 -28 -415
0 -415 0 7 23 c15 49 3 48 414 47 212 -1 391 -5 396 -8z m7323 0 c38 -6 46
-11 52 -34 l7 -28 -414 0 -414 0 0 23 c0 47 3 47 375 46 192 0 370 -4 394 -7z"/>
<path d="M3871 2758 c-18 -7 -56 -32 -82 -57 l-49 -46 -36 -179 c-39 -201 -38
-213 22 -265 61 -54 156 -54 239 1 94 62 149 195 150 358 0 105 -11 139 -58
174 -32 24 -133 31 -186 14z"/>
<path d="M1516 2878 c-15 -79 -30 -155 -32 -170 l-6 -28 124 0 c158 0 214 15
273 74 33 34 46 56 55 98 17 75 3 117 -49 146 -35 20 -53 22 -188 22 l-149 0
-28 -142z"/>
<path d="M1417 2373 c-20 -102 -33 -191 -30 -196 4 -6 60 -8 148 -5 151 6 210
22 264 71 66 61 94 206 49 262 -37 47 -72 55 -241 55 l-154 0 -36 -187z"/>
<path d="M7227 2469 c-70 -10 -143 -45 -170 -81 -11 -15 -22 -49 -25 -77 -4
-45 -2 -53 25 -80 17 -17 46 -33 68 -37 79 -14 210 38 251 101 14 21 44 139
44 172 0 15 -99 16 -193 2z"/>
<path d="M4715 2761 c-65 -29 -136 -114 -159 -188 l-7 -23 200 0 201 0 0 63
c0 76 -22 123 -71 149 -43 23 -112 23 -164 -1z"/>
<path d="M5530 2463 c-125 -19 -183 -55 -205 -126 -19 -63 -10 -102 29 -130
66 -47 213 -17 286 58 24 24 36 50 46 97 24 111 25 108 -58 107 -40 -1 -84 -3
-98 -6z"/>
<path d="M2445 2437 c-64 -19 -104 -48 -125 -92 -53 -110 -2 -181 124 -173 69
4 133 32 183 80 25 24 34 43 43 97 6 36 13 74 16 84 5 15 -4 17 -98 16 -57 -1
-121 -6 -143 -12z"/>
<path d="M1907 1378 c-3 -18 -24 -141 -47 -273 -23 -132 -44 -254 -47 -271 -5
-31 -4 -32 46 -43 29 -6 54 -11 57 -11 5 0 70 134 144 300 24 52 44 97 46 99
2 2 24 -4 50 -13 38 -13 49 -13 56 -4 12 20 5 30 -37 46 -22 8 -41 16 -43 18
-4 2 39 104 44 104 2 0 42 -9 90 -20 48 -11 89 -18 92 -15 11 10 -14 22 -73
34 -33 7 -116 25 -185 41 -206 47 -186 46 -193 8z"/>
<path d="M3761 1389 c-52 -11 -96 -20 -97 -22 -3 -3 166 -570 171 -575 2 -2
19 4 39 12 l36 15 -2 293 -3 293 -25 2 c-14 0 -67 -8 -119 -18z"/>
<path d="M5093 1379 c-64 -25 -130 -87 -163 -154 -21 -42 -25 -64 -25 -145 0
-84 3 -101 27 -145 74 -140 226 -201 376 -151 101 34 192 158 192 261 l0 35
-50 0 c-27 0 -50 -1 -50 -3 0 -2 -5 -30 -11 -62 -35 -192 -176 -280 -292 -184
-149 123 -129 446 33 529 97 50 229 -7 200 -85 -13 -34 -36 -48 -59 -35 -23
12 -28 46 -8 53 6 2 9 8 5 12 -15 15 -38 -5 -38 -33 0 -33 27 -62 56 -62 26 0
62 34 70 65 25 99 -124 157 -263 104z"/>
<path d="M3490 1310 c-43 -43 -14 -120 44 -120 42 0 66 26 66 72 0 62 -67 91
-110 48z"/>
<path d="M4012 1310 c-25 -24 -29 -66 -7 -97 20 -28 47 -33 84 -16 27 13 31
21 31 54 0 69 -61 102 -108 59z"/>
<path d="M6425 1229 c-94 -13 -105 -17 -105 -39 0 -14 -7 -20 -24 -20 -42 0
-43 -39 -1 -53 5 -2 3 -48 -8 -118 -9 -63 -17 -127 -17 -142 0 -61 85 -101
123 -59 31 34 16 82 -25 82 -24 0 -23 -16 2 -23 23 -6 27 -35 5 -43 -19 -8
-45 13 -45 36 0 10 21 59 46 110 43 86 47 91 72 86 24 -5 30 -1 55 44 15 27
27 52 27 55 0 3 -11 5 -25 5 -28 0 -31 16 -10 44 8 11 15 26 15 33 0 14 1 14
-85 2z"/>
<path d="M3493 1122 c-40 -26 -73 -52 -73 -59 0 -12 108 -253 120 -266 6 -7
86 18 102 32 9 8 -55 334 -67 337 -6 1 -43 -19 -82 -44z"/>
<path d="M4017 1120 c-42 -27 -77 -53 -77 -58 0 -12 110 -255 121 -266 8 -9
94 18 104 33 5 10 -54 323 -64 333 -3 4 -41 -15 -84 -42z"/>
<path d="M2457 1142 c-20 -22 -22 -53 -5 -70 17 -17 58 -15 65 3 8 22 -4 30
-22 15 -18 -15 -30 -7 -22 15 14 35 66 8 81 -42 7 -21 4 -23 -29 -23 -73 0
-132 -45 -149 -112 -8 -35 17 -98 50 -122 52 -37 158 -33 200 9 21 22 25 22
33 7 9 -16 14 -15 56 8 72 39 73 44 28 98 -22 26 -67 82 -102 124 -34 43 -72
85 -84 93 -29 21 -80 19 -100 -3z m145 -192 c15 -30 28 -64 28 -76 0 -27 -28
-52 -68 -60 -26 -5 -36 -1 -63 25 -29 29 -31 36 -27 81 6 62 34 92 83 87 13
-1 29 -20 47 -57z"/>
<path d="M3190 1144 c-19 -8 -43 -22 -53 -31 -17 -16 -20 -16 -48 1 -22 13
-43 17 -70 13 -30 -4 -39 -2 -39 10 0 11 -7 14 -22 10 -13 -3 -56 -13 -95 -23
-84 -20 -82 3 -18 -197 l43 -132 33 3 c19 2 38 8 43 12 5 5 11 66 14 135 3 69
9 128 13 131 19 11 46 -8 64 -44 12 -25 19 -65 21 -127 l2 -90 34 3 c71 7 71
7 63 81 -4 36 -15 90 -25 119 l-18 54 32 19 c37 23 55 24 83 4 39 -27 57 -136
38 -225 l-7 -30 60 0 c67 0 72 5 72 73 -1 100 -41 190 -103 227 -38 24 -70 25
-117 4z"/>
<path d="M4289 1146 c-31 -15 -47 -59 -29 -80 16 -20 59 -21 67 -1 8 21 -3 30
-20 17 -15 -13 -27 -6 -27 15 0 23 47 14 69 -13 32 -41 27 -54 -19 -54 -83 0
-140 -53 -140 -130 0 -77 59 -130 145 -130 39 0 95 24 108 46 11 19 27 18 27
-1 0 -8 3 -15 8 -15 13 0 112 60 112 68 0 7 -177 232 -204 260 -21 21 -71 31
-97 18z m132 -219 l29 -68 -25 -25 c-59 -59 -145 -16 -145 72 0 53 39 97 83
92 25 -3 32 -11 58 -71z"/>
<path d="M5643 1139 c-73 -36 -125 -114 -122 -184 1 -39 25 -87 62 -125 92
-92 248 -73 324 39 18 26 23 48 23 96 0 53 -4 68 -31 104 -36 50 -114 91 -174
91 -22 0 -59 -9 -82 -21z m219 -66 c37 -40 48 -66 48 -115 0 -72 -57 -138
-120 -138 -34 0 -79 29 -100 63 -24 38 -26 106 -5 147 38 73 128 95 177 43z"/>
<path d="M6024 1146 c-42 -19 -64 -52 -64 -96 0 -50 22 -76 100 -115 76 -38
100 -58 100 -84 0 -40 -96 -55 -131 -20 -25 25 -20 43 14 47 31 4 37 32 7 32
-25 0 -60 -34 -60 -59 0 -32 47 -61 97 -61 54 0 81 13 94 47 15 41 -5 85 -57
123 -52 37 -68 68 -54 105 10 27 57 55 94 55 33 0 58 -27 54 -59 -2 -22 -8
-26 -33 -26 -23 0 -33 7 -45 30 -13 28 -15 28 -18 8 -8 -54 47 -89 93 -59 20
13 25 25 25 56 0 32 -5 42 -32 61 -40 29 -137 37 -184 15z"/>
<path d="M6631 1126 c-30 -36 9 -104 46 -80 23 14 28 34 10 34 -9 0 -17 -5
-19 -12 -5 -13 -28 -2 -28 12 0 5 9 14 19 20 24 12 57 -13 66 -50 5 -23 3 -25
-35 -27 -146 -9 -192 -180 -67 -248 47 -25 125 -17 170 18 29 22 35 23 43 10
8 -14 17 -11 67 17 31 17 57 34 57 36 0 10 -203 255 -223 269 -27 19 -91 20
-106 1z m149 -198 c36 -75 36 -81 8 -108 -32 -29 -88 -27 -119 6 -52 55 -17
164 53 164 26 0 32 -7 58 -62z"/>
</g>
</svg>
