<?xml version="1.0" standalone="no"?>
<!DOCTYPE svg PUBLIC "-//W3C//DTD SVG 20010904//EN" "http://www.w3.org/TR/2001/REC-SVG-20010904/DTD/svg10.dtd">
<svg version="1.0" xmlns="http://www.w3.org/2000/svg" width="512.000000pt" height="512.000000pt"
  viewBox="0 0 512.000000 512.000000" preserveAspectRatio="xMidYMid meet">

  <g transform="translate(0.000000,512.000000) scale(0.100000,-0.100000)" fill="#000000" stroke="none">
    <path d="M340 4034 c-173 -75 -161 -342 18 -394 26 -8 692 -10 2224 -8 l2186
3 44 30 c138 97 118 306 -34 370 -33 13 -272 15 -2220 15 -1927 -1 -2187 -3
-2218 -16z" />
    <path d="M340 2754 c-173 -75 -161 -342 18 -394 26 -8 692 -10 2224 -8 l2186
3 44 30 c138 97 118 306 -34 370 -33 13 -272 15 -2220 15 -1927 -1 -2187 -3
-2218 -16z" />
    <path d="M340 1474 c-173 -75 -161 -342 18 -394 26 -8 692 -10 2224 -8 l2186
3 44 30 c138 97 118 306 -34 370 -33 13 -272 15 -2220 15 -1927 -1 -2187 -3
-2218 -16z" />
  </g>
</svg>