<?xml version="1.0" encoding="UTF-8"?>
<!DOCTYPE svg PUBLIC "-//W3C//DTD SVG 1.1//EN" "http://www.w3.org/Graphics/SVG/1.1/DTD/svg11.dtd">
<svg xmlns="http://www.w3.org/2000/svg" version="1.1" width="512px" height="512px" style="shape-rendering:geometricPrecision; text-rendering:geometricPrecision; image-rendering:optimizeQuality; fill-rule:evenodd; clip-rule:evenodd" xmlns:xlink="http://www.w3.org/1999/xlink">
<g><path style="opacity:0.996" fill="#ffc106" d="M 511.5,196.5 C 511.5,201.5 511.5,206.5 511.5,211.5C 508.008,219.589 502.675,226.423 495.5,232C 460.704,261.794 426.204,291.961 392,322.5C 402.66,372.815 413.494,423.149 424.5,473.5C 423.57,490.93 414.404,500.263 397,501.5C 391.917,501.354 387.084,500.188 382.5,498C 340.459,472.314 298.126,447.147 255.5,422.5C 212.208,447.481 169.208,472.981 126.5,499C 112.213,504.566 100.38,501.399 91,489.5C 86.8341,482.706 85.5007,475.373 87,467.5C 98.3179,419.237 108.985,370.903 119,322.5C 80.3439,288.843 42.0105,254.843 4,220.5C 2.39518,217.809 0.895182,215.142 -0.5,212.5C -0.5,207.167 -0.5,201.833 -0.5,196.5C 3.28664,185.555 10.9533,179.055 22.5,177C 72.1849,172.514 121.852,167.847 171.5,163C 191.796,116.24 211.962,69.4066 232,22.5C 242.48,9.81361 255.313,6.98027 270.5,14C 274,16.1667 276.833,19 279,22.5C 299.038,69.4066 319.204,116.24 339.5,163C 390.87,167.7 442.204,172.7 493.5,178C 502.443,181.441 508.443,187.608 511.5,196.5 Z"/></g>
</svg>
