<svg width="235" height="257" viewBox="0 0 235 257" fill="none" xmlns="http://www.w3.org/2000/svg">
<path d="M122.537 21.5447C121.529 21.8576 120.325 22.0567 119.907 21.9714C118.359 21.7154 114.401 22.3697 112.533 23.2231C110.788 23.9912 109.018 25.2713 109.018 25.755C109.018 25.8688 109.731 26.1248 110.616 26.2955C112.115 26.58 115.729 28.3437 116.048 28.9696C116.343 29.4816 115.95 29.4816 114.893 28.9696C112.263 27.6894 108.33 27.2912 105.626 28.0308C102.037 29.0549 98.5713 32.0135 96.9982 35.4841C96.482 36.5651 95.8183 37.4755 95.0318 38.1298C93.3357 39.5806 91.1726 42.3685 90.4352 44.0469C89.7224 45.6684 89.1079 47.802 89.1079 48.7124C89.1079 49.0253 88.8129 49.5942 88.4688 49.9925C87.5593 50.9597 86.8956 52.7235 86.8956 54.2312C86.8956 54.9424 86.7236 55.8243 86.5023 56.1657C86.2811 56.5355 86.1582 56.8769 86.2074 56.9622C86.2811 57.0191 87.1906 56.564 88.2721 55.9381C89.3291 55.3123 91.0989 54.4588 92.1804 54.0321C93.9256 53.3778 94.5647 53.2925 97.711 53.264C101.718 53.264 103.119 53.5769 106.314 55.3123C108.797 56.6777 110.96 58.3562 110.64 58.6975C110.591 58.7544 110.05 58.5269 109.411 58.2139C108.772 57.901 107.199 57.3036 105.872 56.8769C103.66 56.1372 103.192 56.0803 99.063 56.1088C94.958 56.1088 94.4664 56.1657 92.4262 56.9053C90.3123 57.645 86.2565 59.8639 86.5023 60.1199C86.5761 60.2053 87.5347 60.1199 88.6408 59.9492C91.0743 59.5794 93.7044 59.551 93.8765 59.8924C94.024 60.1484 93.729 60.3191 90.6073 61.5139C89.4766 61.969 88.4934 62.5096 88.4196 62.7371C88.3459 62.9647 88.4688 64.2449 88.69 65.6104C89.0341 67.5733 89.1079 69.8206 89.1079 76.6197C89.1079 84.898 89.1325 85.1825 89.6241 85.9221C90.7793 87.629 90.9022 88.7384 91.0251 99.1788C91.0989 106.376 91.0251 109.704 90.7793 111.696C90.3123 115.622 90.4352 123.445 91.0006 126.46C91.2464 127.797 91.5659 128.907 91.7134 128.964C91.8609 129.021 92.1067 128.708 92.2788 128.309C92.6966 127.257 93.0162 127.74 93.2866 129.789C93.6798 132.861 95.8675 138.892 97.0965 140.314C97.4161 140.713 97.4652 140.656 97.4652 139.945C97.4652 138.75 97.7356 137.868 98.0797 137.868C98.2518 137.868 98.6451 138.636 98.9401 139.603C100.194 143.444 103.315 147.625 106.511 149.731C107.273 150.243 107.986 150.669 108.059 150.669C108.158 150.669 108.305 150.214 108.379 149.674C108.477 149.133 108.649 148.621 108.797 148.536C108.92 148.422 109.755 149.133 110.665 150.072C112.41 151.95 115.507 154.424 117.498 155.562C120.35 157.184 124.283 158.35 126.986 158.35C128.781 158.35 131.14 157.753 131.14 157.326C131.14 157.099 131.042 156.928 130.944 156.928C130.845 156.928 130.6 156.473 130.428 155.904C130.157 155.05 130.157 154.823 130.428 154.51C130.772 154.168 136.106 150.954 136.352 150.954C136.425 150.954 136.573 151.409 136.646 151.95C136.745 152.49 136.917 153.002 137.04 153.087C137.31 153.287 139.842 150.869 141.169 149.105C143.209 146.402 144.512 143.7 146.012 138.92C146.503 137.327 146.847 137.441 147.044 139.262C147.118 139.888 147.265 140.428 147.364 140.428C148.003 140.428 150.313 134.682 150.928 131.609C151.174 130.443 151.419 129.106 151.518 128.651C151.739 127.484 152.108 127.456 152.476 128.537C152.624 129.021 152.845 129.362 152.919 129.248C153.386 128.708 154.025 123.957 154.148 120.088C154.271 116.816 154.197 115.223 153.902 113.26C153.607 111.241 153.509 108.652 153.509 101.17C153.509 90.872 153.754 87.8566 154.762 86.2635C155.254 85.4954 155.278 85.0402 155.377 76.8757C155.451 72.1818 155.5 68.0569 155.549 67.744C155.598 67.2319 155.475 67.175 154.443 67.2603C153.779 67.3172 153.263 67.2888 153.263 67.2034C153.263 67.1181 153.877 66.5776 154.664 66.0086C157.196 64.1311 158.326 62.4811 157.073 62.4811C156.852 62.4811 157.22 61.7415 157.933 60.6036C159.531 58.1855 159.555 57.901 158.007 58.5553C157.564 58.726 157.147 58.8113 157.073 58.726C156.999 58.6407 157.269 57.8441 157.687 56.9338C158.081 56.0519 158.425 55.1131 158.425 54.914C158.425 54.2312 157.319 55.3407 156.827 56.4786C156.36 57.6165 155.205 59.4087 155.057 59.2381C155.008 59.1812 155.156 58.5553 155.426 57.8726C156.163 55.9381 156.237 55.6252 156.606 53.52C156.975 51.3011 157.048 49.3951 156.753 49.3951C156.655 49.3951 156.237 50.021 155.844 50.8175C155.451 51.5856 155.033 52.2399 154.934 52.2399C154.836 52.2399 154.738 51.5571 154.738 50.7322C154.738 48.5701 154.246 45.8676 153.927 46.2374C153.779 46.4081 153.582 47.8874 153.509 49.5373C153.361 52.2114 153.238 52.752 152.403 54.6864C151.763 56.2226 150.977 57.4174 149.674 58.9536L147.831 61.0872L148.666 62.282C149.969 64.1026 150.805 66.1793 150.805 67.4595C150.805 68.5974 150.215 70.731 149.33 72.7508C148.642 74.2585 148.715 74.6852 149.772 76.5912C151.198 79.0946 151.714 80.8015 152.058 84.073C152.452 87.9135 152.058 93.6599 151.149 97.1875C150.338 100.317 150.166 101.142 149.723 103.816C149.305 106.291 148.224 108.965 146.233 112.435C144.93 114.711 142.079 118.893 140.579 120.799C139.055 122.734 138.834 123.217 138.515 125.351C138.367 126.517 138.195 127.684 138.17 127.911C138.048 128.651 137.851 127.712 137.556 124.924C136.917 119.206 136.253 118.154 131.558 115.451C125.905 112.179 125.954 112.208 122.685 112.094C119.809 112.009 119.711 112.009 117.523 113.004C114.721 114.285 110.321 116.93 109.338 117.926C108.059 119.235 107.445 121.197 106.953 125.607L106.634 128.338L106.363 126.83C106.191 126.005 106.068 124.924 106.068 124.412C106.044 123.672 105.626 122.904 103.832 120.515C98.301 113.118 95.6217 108.111 94.8843 103.873C94.4418 101.312 93.3849 96.6185 92.9424 95.3383C92.7704 94.7978 92.672 92.2091 92.672 88.0842C92.672 82.3946 92.7212 81.5127 93.1636 80.261C93.7044 78.6395 95.1301 75.6809 95.4988 75.4249C95.9658 75.0835 95.7446 73.9171 94.8351 71.6982C94.024 69.7638 93.9011 69.1664 93.9011 67.4595C93.9011 65.8095 94.024 65.1552 94.6876 63.619C95.5725 61.5423 96.9245 59.7217 97.8094 59.4656C98.3501 59.3234 100.71 59.5794 104.102 60.2053C104.839 60.3475 107.273 60.7173 109.51 61.0303C111.746 61.3432 114.475 61.7415 115.581 61.9122C118.629 62.3673 132.91 62.282 136.327 61.7984C140.899 61.1441 143.455 60.3191 146.503 58.5838C150.19 56.4786 151.886 54.0037 152.648 49.5942C153.066 47.1477 153.066 46.6357 152.796 44.5021C152.353 41.4297 151.911 39.9504 150.879 38.0444C149.92 36.3091 148.101 34.204 147.019 33.5497C146.356 33.1514 146.331 33.1514 146.503 33.635C147.806 37.3332 148.003 41.6857 147.019 45.1848C146.356 47.546 145.766 48.7977 144.316 51.0451C142.669 53.6054 142.325 53.4062 143.554 50.6184C144.168 49.2244 144.93 46.9202 145.299 45.4693C145.864 43.1366 145.938 42.4254 145.84 39.353C145.766 36.1669 145.692 35.7402 145.004 34.0048C144.045 31.7006 141.71 28.8842 139.08 26.8929C136.819 25.186 136.229 25.0722 137.236 26.5515C138.392 28.2584 139.399 30.5911 140.014 32.8954C140.481 34.6591 140.579 35.6833 140.604 38.8694C140.604 44.0754 139.817 47.6029 137.728 51.5571C136.745 53.4632 134.828 56.3079 134.68 56.1372C134.606 56.0803 134.95 55.2554 135.393 54.345C138.76 47.7167 139.916 39.666 138.515 33.0376C138.343 32.2411 137.777 30.5627 137.261 29.2825C134.606 22.7395 128.732 19.6671 122.537 21.5447ZM117.326 25.4705C125.413 28.0592 130.329 37.4186 129.199 48.115C128.854 51.3296 128.24 54.3735 127.601 55.9381L127.208 56.9338L127.33 55.9381C127.404 55.3976 127.527 53.2071 127.601 51.102C127.847 44.1607 126.593 38.5849 123.619 33.4643C122.095 30.7902 119.932 28.5428 117.179 26.6653C115.925 25.8119 114.917 25.0722 114.917 25.0153C114.917 24.8162 115.753 24.9584 117.326 25.4705ZM127.699 26.0679C129.42 26.8644 131.632 28.6282 132.738 30.1075C134.582 32.6109 136.081 36.5082 136.425 39.6944C136.548 40.9461 136.499 40.8608 135.344 38.1582C134.655 36.5936 133.943 35.0574 133.721 34.7729C133.279 34.1186 132.959 34.3462 133.304 35.0859C134.188 37.0488 134.262 42.5392 133.451 45.4124L133.009 46.977L132.837 43.1366C132.664 39.0117 132.148 36.5936 130.673 33.2367C129.862 31.4161 127.847 28.173 126.519 26.5515C125.487 25.3282 125.782 25.186 127.699 26.0679ZM110.567 35.4272C116.294 38.4142 120.645 44.9004 122.365 52.9511C122.955 55.6252 123.447 59.3803 123.201 59.0674C123.152 58.982 122.464 57.7019 121.677 56.2226C116.613 46.4934 109.878 40.2918 102.332 38.3858C101.275 38.1298 100.415 37.8168 100.415 37.6746C100.415 37.3048 103.192 37.4186 105.061 37.8737C108.649 38.7556 111.992 40.4909 114.524 42.8237C115.065 43.3073 115.532 43.6487 115.606 43.5918C115.753 43.4211 114.106 40.6616 113.148 39.4384C111.992 37.9875 109.067 35.1712 108.698 35.1712C108.502 35.1712 108.526 35.0859 108.772 34.9152C108.969 34.7445 109.19 34.6876 109.264 34.716C109.338 34.7729 109.928 35.0859 110.567 35.4272ZM107.297 47.3753C109.755 48.115 112.115 49.3667 114.254 51.102C115.974 52.4675 119.047 55.7959 118.826 56.0519C118.776 56.1088 117.842 55.5683 116.736 54.8286C114.352 53.2071 109.878 51.0735 107.175 50.277C103.34 49.1675 100.489 48.7977 96.1625 48.8546C93.9011 48.883 91.9838 48.8261 91.91 48.7408C91.738 48.5417 94.6876 47.546 96.6049 47.1477C97.4161 46.977 98.3501 46.7779 98.6943 46.721C100.144 46.4081 105.503 46.8348 107.297 47.3753ZM125.61 118.808C126.028 118.95 126.839 119.149 127.453 119.263C128.043 119.348 128.707 119.547 128.928 119.661C129.125 119.803 129.838 120.116 130.477 120.372C131.116 120.628 131.976 121.169 132.345 121.539C133.181 122.335 134.188 124.896 133.992 125.749C133.844 126.46 131.681 127.996 129.764 128.793C127.306 129.76 124.75 129.39 124.75 128.053C124.75 127.598 124.971 127.314 125.487 127.058C125.88 126.859 126.347 126.546 126.495 126.318C126.741 125.977 126.126 125.92 122.562 125.92C119.981 125.92 118.359 126.034 118.359 126.204C118.359 126.346 118.654 126.688 119.047 126.972C119.858 127.598 120.079 127.911 119.907 128.366C119.686 129.049 118.383 129.419 116.761 129.277C115.016 129.106 111.968 127.57 110.96 126.318C110.444 125.664 110.419 125.55 110.714 124.554C111.476 121.994 112.631 120.771 115.04 119.946C119.637 118.381 123.127 118.011 125.61 118.808Z" fill="white"/>
<path d="M69.0748 32.8669C67.0838 33.4643 65.314 35.0858 64.7486 36.8496C64.3553 37.9591 64.4291 40.3202 64.847 41.4297C65.9285 44.3029 68.534 45.6969 71.2379 44.815C72.2703 44.5021 73.9909 42.653 74.6546 41.2021C75.1707 40.0642 75.5886 40.0642 76.6702 41.1452C77.8746 42.3969 78.3908 44.1322 78.2187 46.2658C77.9238 49.4235 76.4244 51.6994 73.9171 52.8373C72.6881 53.4062 72.0736 53.4631 69.0748 53.4631C66.248 53.4631 65.1665 53.3209 62.9297 52.695C61.4548 52.2968 59.9554 51.8416 59.6113 51.6994C59.2672 51.5571 58.0382 51.0166 56.8337 50.5046C55.6539 50.021 54.6215 49.6796 54.5232 49.7649C54.3511 49.9925 68.067 113.915 68.6323 115.423C69.2714 117.215 70.7463 117.585 71.9015 116.247C72.639 115.394 72.5652 114.626 71.0412 108.851C70.8446 108.14 70.0826 105.267 69.3452 102.45C68.6078 99.634 67.6983 96.2487 67.3542 94.9116C66.9855 93.5746 66.4447 91.4694 66.1251 90.2177C65.8056 88.966 64.7732 84.8695 63.79 81.1144C62.0939 74.5145 61.7498 73.0921 60.1521 66.3216C59.218 62.4242 57.7678 56.0519 57.5466 54.9993C57.4237 54.4304 57.4728 54.2312 57.7678 54.2312C58.1119 54.2312 60.1767 55.1416 61.7007 55.9381C64.552 57.4458 68.9027 58.1855 72.3194 57.7303C77.85 56.9907 80.7505 54.2028 81.8812 48.5132C82.5695 45.0141 81.8321 40.8892 80.0623 38.1582C78.8578 36.3375 76.4735 34.2324 74.6791 33.4643C73.1551 32.7816 70.3284 32.4686 69.0748 32.8669Z" fill="white"/>
<path d="M170.961 33.2367C168.011 34.4315 165.258 37.0487 164.054 39.7797C162.923 42.3116 162.554 46.2943 163.193 49.0253C164.177 53.2924 166.094 55.6536 169.732 57.1045C171.059 57.6165 171.895 57.7303 174.648 57.7588C178.458 57.7872 180.228 57.3889 183.988 55.5683C185.267 54.9709 186.643 54.4019 187.036 54.3166C187.626 54.1743 187.7 54.2312 187.577 54.6864C187.503 54.9993 187.159 56.4502 186.84 57.9294C185.734 62.8509 184.947 66.2931 184.185 69.3086C183.792 70.9585 183.3 73.0068 183.079 73.8602C182.882 74.7137 182.415 76.6481 182.022 78.1274C181.629 79.6067 180.867 82.6222 180.301 84.8126C179.736 87.0031 178.728 90.8436 178.089 93.347C177.425 95.8504 176.221 100.459 175.385 103.588C174.574 106.717 173.64 110.302 173.296 111.582C172.485 114.598 172.485 115.735 173.321 116.504C174.205 117.329 175.041 117.243 175.852 116.304C176.442 115.622 177.155 112.521 183.595 82.7359C187.479 64.7 190.625 49.8503 190.551 49.7649C190.404 49.6227 188.978 50.1347 186.201 51.358C183.202 52.6666 179.392 53.4631 175.729 53.4916L172.264 53.52L170.568 52.5244C169.216 51.7278 168.699 51.2158 167.937 49.9641C166.217 47.0624 166.438 43.165 168.429 41.1452C169.486 40.0642 169.904 40.1211 170.543 41.4297C172.067 44.6728 174.894 45.9529 177.475 44.5874C179.49 43.5348 180.547 41.6004 180.547 39.0401C180.547 37.0487 179.933 35.541 178.654 34.4031C177.278 33.1798 176.442 32.8385 174.402 32.7247C172.927 32.6109 172.239 32.7247 170.961 33.2367Z" fill="white"/>
<path d="M71.9999 63.875C71.2379 64.2733 70.8446 64.7285 70.4267 65.7241C69.9351 66.9474 69.8859 67.3457 70.0089 70.2473C70.0826 72.0111 70.2547 74.0025 70.3776 74.7137C70.7463 76.7619 71.8278 81.9394 72.7619 86.0928C74.4579 93.5461 74.9004 95.8788 75.9082 102.45C77.1863 110.586 77.8746 120.059 78.1941 133.714C78.3662 140.997 78.4399 141.282 80.1114 141.282C81.3159 141.282 82.4711 141.594 82.3237 141.879C82.2499 142.021 81.832 142.135 81.3896 142.135C80.1606 142.135 79.1282 142.647 78.7841 143.415C78.4399 144.183 78.0221 144.269 76.916 143.87C73.9171 142.761 67.3542 140.969 66.9363 141.139C66.7642 141.225 66.3955 141.68 66.1251 142.135C65.8548 142.59 65.5598 142.875 65.4369 142.732C65.2648 142.533 65.4369 141.395 66.1497 138.323C66.4447 137.128 66.4447 136.986 66.1251 137.299C65.9285 137.498 65.5352 138.408 65.2402 139.319C64.6011 141.31 64.1341 141.538 64.3799 139.774C64.8224 136.389 64.847 136.445 64.1587 138.01C63.8146 138.778 63.5442 139.603 63.5442 139.802C63.5442 140.001 63.4459 140.087 63.2984 140.001C62.9297 139.745 63.0034 138.551 63.5196 136.161C63.79 134.995 63.9129 133.914 63.8146 133.8C63.5933 133.544 55.4081 130.073 49.2875 127.684C28.8612 119.633 29.5003 119.86 28.4925 120.088C27.0668 120.372 24.7071 123.729 24.7071 125.408C24.7071 126.005 24.7808 125.977 25.3953 125.066C26.5506 123.331 27.6076 122.079 27.755 122.25C27.8288 122.335 27.6321 123.303 27.288 124.384C26.6735 126.346 26.526 127.371 26.8456 127.712C26.9193 127.826 27.2143 127.484 27.4847 126.972C28.345 125.322 29.7215 123.359 30.0164 123.359C30.2377 123.359 30.1885 123.815 29.8444 124.924C29.5986 125.778 29.3773 127.029 29.3773 127.684L29.4019 128.907L30.0164 127.513C30.6555 126.062 31.6633 124.497 32.2287 124.128C32.4745 123.957 32.4991 124.099 32.2778 124.839C31.9091 126.233 31.3438 128.85 31.3438 129.248C31.3438 129.988 31.8354 129.561 32.3516 128.395C33.1136 126.688 34.4655 124.696 34.6621 125.066C34.7359 125.209 34.7359 125.521 34.613 125.692C34.0231 126.773 33.5806 130.187 34.0476 130.187C34.1951 130.187 34.2934 130.045 34.2934 129.874C34.2934 129.732 34.7359 128.821 35.2767 127.911C36.8252 125.265 37.2677 125.209 36.4811 127.712C36.2107 128.594 36.0141 129.675 36.0632 130.102C36.137 130.87 36.1861 130.813 36.9481 129.362C37.833 127.74 38.9637 126.176 38.9637 126.631C38.9637 126.802 38.7425 127.74 38.4721 128.708C37.9559 130.585 37.833 131.894 38.1772 131.894C38.2755 131.894 38.7179 131.126 39.185 130.187C39.9961 128.565 41.176 126.972 41.176 127.513C41.176 127.655 40.9547 128.48 40.6844 129.333C40.119 131.097 39.9961 133.572 40.5123 132.662C40.6844 132.349 41.2006 131.382 41.6922 130.5C42.6016 128.878 43.3882 127.883 43.3882 128.395C43.3882 128.537 43.167 129.447 42.872 130.386C42.6016 131.353 42.405 132.577 42.4542 133.089L42.5279 134.027L43.0687 132.747C43.6586 131.382 45.0105 129.333 45.3546 129.333C45.453 129.333 45.3301 130.102 45.0843 131.069C44.8385 132.008 44.6172 133.145 44.6172 133.544C44.6172 134.227 44.7156 134.141 45.3301 132.889C46.2395 131.126 47.2228 129.703 47.4194 129.931C47.4931 130.016 47.3457 130.784 47.0753 131.638C46.3133 134.027 46.4853 136.246 47.2719 134.198C47.739 132.946 49.3613 130.585 49.4842 130.983C49.5333 131.183 49.4104 131.922 49.2138 132.662C48.7222 134.483 48.5255 136.104 48.7959 136.303C48.9188 136.389 49.2629 135.876 49.5579 135.137C50.1233 133.885 51.721 131.496 51.8931 131.666C51.9422 131.723 51.7456 132.577 51.4998 133.572C51.2294 134.539 51.0082 135.82 51.0082 136.389V137.441L51.721 135.962C52.6305 134.084 54.0316 132.008 54.1545 132.406C54.179 132.548 54.0561 133.174 53.8349 133.771C53.4416 134.909 53.0238 138.152 53.2941 138.152C53.3925 138.152 53.7857 137.413 54.179 136.502C54.5723 135.62 55.2606 134.426 55.6784 133.885C56.5388 132.776 56.5388 132.833 55.9488 135.45C55.8013 136.076 55.703 136.958 55.703 137.441V138.295L56.1209 137.413C56.8829 135.848 58.1611 133.885 58.4315 133.885C58.5789 133.885 58.6035 134.084 58.5052 134.369C58.0136 135.791 57.6449 137.555 57.6449 138.437V139.432L58.4806 137.868C59.4884 135.962 60.3242 134.739 60.5945 134.739C60.7174 134.739 60.5945 135.478 60.3242 136.417C59.98 137.555 59.8571 138.636 59.9063 139.859L59.98 141.651L61.4548 142.363C63.1509 143.216 63.1755 143.216 62.9788 143.444C62.4872 144.013 47.0999 138.351 28.0992 130.585C26.2556 129.817 24.6825 129.277 24.5842 129.39C24.1909 129.817 25.1003 130.841 26.6243 131.638C30.4589 133.686 39.2833 137.356 47.0753 140.144C48.5009 140.627 50.2707 141.282 51.0082 141.566C53.9824 142.704 58.0627 144.126 58.8739 144.297C59.3409 144.411 59.8571 144.582 59.98 144.695C60.1275 144.809 61.3811 145.236 62.8068 145.663C64.2324 146.089 65.6581 146.573 66.0022 146.687C67.4033 147.227 76.8176 149.816 77.4076 149.816C77.8746 149.816 78.0467 149.674 78.0467 149.275C78.0467 148.593 78.2925 147.825 78.5137 147.825C78.612 147.825 78.8332 148.82 79.0053 150.015C79.4723 153.201 80.1606 154.624 81.4388 155.079C84.8309 156.274 86.699 146.089 86.6744 126.631C86.6744 114 85.9861 103.247 84.5605 92.778C83.7002 86.6617 83.4298 85.0402 82.3482 80.261C80.8488 73.5188 80.2589 72.1534 78.9316 72.1534C78.6612 72.1534 77.7763 72.4663 76.9405 72.8645C76.1294 73.2344 74.6791 73.6326 73.7451 73.718L72.0244 73.8887L72.8848 73.4335C73.3518 73.149 74.5317 72.5232 75.4657 71.9827C78.6857 70.2473 79.1282 68.7965 77.3584 66.0655C76.326 64.4724 74.7283 63.3345 73.5976 63.3345C73.278 63.3345 72.5652 63.5906 71.9999 63.875ZM75.1462 67.431C75.392 67.6301 75.6624 68.1991 75.7361 68.6827C75.859 69.3655 75.7607 69.7068 75.2691 70.2758C74.4579 71.2146 73.7697 71.2146 73.0077 70.3042C72.2457 69.4508 72.2211 68.5405 72.9339 67.687C73.5239 66.9758 74.5071 66.8336 75.1462 67.431ZM78.8824 77.1886C79.841 80.1187 80.7751 83.1627 80.9963 84.1014C83.2331 94.2289 84.0197 99.7477 84.7325 109.989C85.175 116.418 85.1504 133.515 84.708 135.535C84.5359 136.36 84.3147 136.986 84.2655 136.901C84.1918 136.815 84.0443 133.145 83.9214 128.708C83.6264 116.987 83.2823 111.127 82.4711 103.73C82.0041 99.5202 81.4633 95.3099 81.0946 92.9203C80.898 91.5832 80.6276 89.8479 80.5047 89.0798C80.1852 86.9462 79.5952 83.817 78.7841 79.8912C77.9729 76.1076 77.9483 75.8516 78.2433 75.8516C78.3416 75.8516 78.6366 76.449 78.8824 77.1886ZM82.7415 147.569C83.1348 148.422 82.6678 149.531 81.9058 149.531C81.193 149.531 80.7505 149.048 80.7505 148.251C80.7505 146.971 82.2253 146.459 82.7415 147.569Z" fill="white"/>
<path d="M169.83 63.875C168.404 64.6147 166.536 67.3741 166.536 68.7112C166.536 69.65 167.864 71.1292 169.584 72.0965C170.469 72.6085 171.33 73.0068 171.502 73.0068C171.674 73.0352 172.092 73.2344 172.436 73.462C173.001 73.8602 172.952 73.8887 171.33 73.718C170.395 73.6327 168.945 73.2344 168.134 72.8646C165.037 71.4137 164.717 71.812 162.898 79.1231C161.448 85.0402 159.924 95.253 159.162 104.442C158.744 109.619 158.179 122.364 158.179 126.915C158.179 131.609 158.744 141.851 159.162 145.378C159.9 151.295 161.399 155.221 162.898 155.221C164.373 155.221 165.553 153.372 165.946 150.47C166.069 149.702 166.168 149.019 166.192 148.877C166.217 148.763 166.241 148.479 166.266 148.251C166.315 147.455 166.758 147.825 166.93 148.82C167.102 149.93 167.544 150.072 169.216 149.531C169.707 149.389 171.477 148.877 173.173 148.394C186.84 144.582 209.872 136.047 217.86 131.865C218.721 131.41 219.483 131.04 219.556 131.04C219.778 131.04 220.343 130.073 220.368 129.646C220.368 129.134 219.974 129.277 216.066 130.898C201.834 136.872 182.907 143.842 181.973 143.472C181.678 143.358 183.005 142.562 184.628 141.822C185.291 141.566 185.291 141.538 185.144 139.347C185.07 138.152 184.849 136.673 184.628 136.104C184.161 134.852 184.161 134.739 184.48 134.739C184.726 134.739 186.053 136.844 186.864 138.551L187.405 139.717L187.43 138.693C187.43 138.124 187.208 136.929 186.938 135.99C186.373 134.056 186.373 133.885 186.668 133.885C186.815 133.885 187.479 134.881 188.143 136.076C189.175 137.868 189.396 138.124 189.396 137.526C189.396 137.128 189.175 135.962 188.905 134.995C188.659 133.999 188.487 133.145 188.536 133.089C188.732 132.861 189.789 134.397 190.723 136.275C191.24 137.299 191.731 138.152 191.78 138.152C192.002 138.152 191.584 134.995 191.215 134.027C190.355 131.581 191.068 131.979 192.641 134.767C194.042 137.27 194.337 137.214 193.722 134.539C192.96 131.239 192.96 131.353 193.894 132.52C194.361 133.117 195.074 134.34 195.492 135.222L196.254 136.872L196.279 135.564C196.279 134.824 196.107 133.686 195.91 133.032C195.713 132.377 195.541 131.552 195.541 131.239C195.541 130.699 195.566 130.699 195.984 131.126C196.23 131.41 196.869 132.463 197.409 133.515C198.343 135.364 198.368 135.393 198.442 134.568C198.491 134.056 198.294 132.889 198.024 131.951C197.434 129.959 197.434 129.902 197.729 129.902C197.876 129.902 198.54 130.898 199.228 132.093L200.507 134.312L200.334 132.946C200.261 132.207 200.015 131.126 199.818 130.585C198.958 128.224 200.236 129.447 201.76 132.463C202.448 133.828 202.547 133.942 202.62 133.345C202.694 132.776 202.203 130.187 201.76 128.85C201.686 128.651 201.76 128.48 201.883 128.48C202.031 128.48 202.719 129.476 203.407 130.671C204.12 131.894 204.734 132.946 204.808 133.032C205.054 133.288 204.636 130.244 204.267 129.021C204.046 128.366 203.948 127.74 204.046 127.655C204.243 127.427 205.226 128.85 206.062 130.528C206.43 131.296 206.824 131.894 206.922 131.894C207.192 131.894 206.873 129.447 206.455 128.281C206.258 127.769 206.111 127.2 206.111 127.029C206.111 126.403 207.364 127.996 208.176 129.618C208.913 131.154 208.938 131.154 209.011 130.329C209.036 129.846 208.864 128.708 208.593 127.769C208.323 126.83 208.176 126.005 208.225 125.92C208.421 125.692 209.7 127.598 210.388 129.163C210.806 130.073 211.052 130.415 211.15 130.158C211.273 129.732 210.781 126.546 210.412 125.55C210.314 125.265 210.339 125.066 210.511 125.066C210.83 125.066 212.109 127.029 212.797 128.594C213.116 129.333 213.338 129.59 213.485 129.362C213.682 128.992 213.264 126.346 212.797 124.981C212.576 124.384 212.576 124.213 212.821 124.213C213.165 124.241 213.706 125.066 214.886 127.314C215.648 128.765 215.697 128.821 215.697 128.025C215.697 127.285 215.501 126.346 214.812 123.644C214.64 122.933 214.64 122.933 215.427 123.786C215.845 124.241 216.607 125.294 217.098 126.119C218.499 128.48 218.671 127.769 217.615 124.128C217.344 123.217 217.197 122.392 217.295 122.278C217.442 122.079 218.352 123.16 219.679 125.095C220.245 125.92 220.343 125.977 220.368 125.493C220.368 124.469 218.671 121.51 217.59 120.714C216.385 119.803 215.894 119.775 214.173 120.486C213.46 120.771 211.322 121.596 209.429 122.307C207.537 123.018 202.891 124.839 199.105 126.346C195.32 127.854 191.731 129.277 191.117 129.533C188.855 130.415 183.104 132.861 182.047 133.373C181.063 133.857 180.99 133.942 181.162 134.682C181.899 137.754 182.12 139.745 181.801 139.973C181.653 140.087 181.53 140.001 181.53 139.774C181.53 139.575 181.26 138.778 180.916 137.982L180.277 136.588L180.424 137.868C180.498 138.579 180.621 139.546 180.67 140.058C180.891 141.651 180.4 141.31 179.834 139.489C179.294 137.754 178.581 136.303 178.581 136.958C178.581 137.157 178.802 138.238 179.072 139.347C179.343 140.485 179.564 141.794 179.564 142.249V143.102L178.753 142.078L177.942 141.054L176.369 141.452C173.665 142.107 173.37 142.163 170.297 143.159C168.65 143.7 167.126 144.126 166.93 144.126C166.708 144.126 166.413 143.842 166.266 143.472C165.971 142.704 164.791 142.135 163.513 142.135C163.021 142.135 162.603 142.021 162.603 141.879C162.603 141.623 163.562 141.395 165.43 141.225C165.897 141.168 166.241 140.912 166.438 140.485C166.61 140.115 166.758 136.844 166.88 132.093C167.2 116.731 168.159 106.149 170.223 95.6228C170.518 94.0582 172.018 87.1738 173.271 81.5411C173.591 80.0619 173.984 78.1274 174.132 77.274C174.279 76.4205 174.574 74.7421 174.771 73.5758C175.656 68.4267 175.066 64.9276 173.075 63.875C171.797 63.2207 171.108 63.2207 169.83 63.875ZM172.19 67.8008C172.804 68.7112 172.681 69.7637 171.895 70.5034C171.231 71.1577 170.69 71.1577 169.879 70.418C168.65 69.3086 169.289 67.0328 170.838 67.0328C171.452 67.0328 171.797 67.2319 172.19 67.8008ZM166.192 80.0334C164.963 86.0643 163.808 92.9487 163.316 97.1874C163.218 98.2116 162.997 99.8615 162.849 100.886C162.112 106.063 161.276 119.32 161.006 129.618C160.907 133.288 160.735 136.559 160.637 136.872C160.195 138.266 159.826 129.902 159.973 121.226C160.195 106.092 161.227 96.2771 163.685 85.6661C164.742 81.0575 166.635 75.3111 166.954 75.6809C167.028 75.7378 166.684 77.7007 166.192 80.0334ZM163.931 147.426C164.398 147.938 164.422 148.223 164.078 148.991C163.587 150.044 162.112 149.503 162.112 148.251C162.112 147.056 163.193 146.573 163.931 147.426Z" fill="white"/>
<path d="M42.0363 72.5516C40.0453 73.6042 38.6688 75.7947 38.0051 78.8671C37.2923 82.3092 39.4308 86.9462 42.3312 88.2548C43.9536 88.9945 46.6328 88.6816 48.6238 87.5721C50.3691 86.5764 52.9008 84.0446 54.3511 81.8256C54.8673 81.0575 55.4081 80.4032 55.5555 80.4032C55.8013 80.4032 56.6617 83.5609 56.6617 84.4713C56.6617 84.7273 56.5142 85.0971 56.3421 85.2963C52.6305 89.791 47.5423 97.8133 44.3714 104.157C42.6754 107.542 39.7257 114.427 38.9883 116.674C38.7179 117.442 38.4475 118.324 38.3492 118.58C38.2263 118.95 38.3984 119.178 39.0866 119.491C40.586 120.23 40.7335 120.116 41.5201 117.869C42.5033 115.053 45.5267 108.026 47.0753 104.954C49.7545 99.7193 53.1958 94.2573 56.6371 89.7057L57.4974 88.6247L57.7924 89.5634C58.1611 90.7867 58.8739 94.3996 58.8739 95.1392C58.8739 95.4521 58.7264 95.9073 58.5544 96.1064C57.6203 97.1875 53.712 103.56 52.0405 106.774C49.8529 110.956 48.5747 113.744 46.977 117.869C45.3301 122.136 45.3301 122.051 46.7312 122.62C47.3702 122.876 47.9848 122.99 48.0831 122.876C48.1814 122.734 48.8205 121.084 49.5333 119.178C51.7701 113.09 56.0471 104.811 59.5376 99.7478C59.7588 99.4348 60.0783 100.573 60.6929 103.844L61.3565 107.315L59.9063 110.017C57.4237 114.598 55.8259 118.154 53.5891 124.014C53.3679 124.611 53.2204 125.152 53.2696 125.18C53.4908 125.408 55.703 126.261 55.7522 126.176C55.8013 126.119 56.2684 124.896 56.7846 123.502C58.3577 119.32 61.6761 112.265 62.0939 112.265C62.3643 112.265 63.5442 118.182 63.5442 119.633C63.5442 120.088 63.028 121.653 62.4135 123.103C61.4303 125.379 60.5945 127.684 60.5945 128.11C60.5945 128.309 62.2906 129.049 62.7822 129.049C63.0772 129.049 63.2984 128.793 63.3967 128.338C63.6179 127.285 65.7318 122.165 66.1743 121.596C66.7151 120.884 66.5676 120.031 64.0604 109.562C61.2582 97.7849 60.4225 94.2573 59.7096 91.2134C57.1287 80.005 56.3421 76.8188 56.1946 76.6197C56.0963 76.5059 55.7276 76.8188 55.3835 77.3309C52.6059 81.4843 48.968 84.642 45.9446 85.5238C44.8385 85.8368 44.5681 85.8368 43.5357 85.3816C42.8474 85.0687 42.0363 84.4144 41.5201 83.7316C40.8073 82.736 40.6844 82.3661 40.6844 81.086C40.6844 80.0903 40.8073 79.436 41.0776 79.1231C41.4464 78.7248 41.5447 78.7248 42.2821 79.2653C42.7983 79.6352 43.5111 79.8343 44.3223 79.8343C45.3792 79.8343 45.7234 79.692 46.4362 78.9809C48.4272 76.9326 48.1568 73.8033 45.8463 72.4379C44.5927 71.6982 43.5357 71.7267 42.0363 72.5516Z" fill="white"/>
<path d="M199.622 72.1534C197.68 72.8361 196.721 75.4533 197.631 77.6438C198.466 79.692 200.728 80.4032 202.67 79.2653C203.53 78.7533 203.653 78.7533 203.997 79.1515C204.267 79.436 204.39 80.1188 204.39 81.086C204.39 82.3946 204.267 82.736 203.53 83.7601C202.891 84.6135 202.276 85.0687 201.367 85.4101C200.212 85.8083 199.941 85.8368 198.688 85.4385C196.254 84.6989 192.125 81.086 189.986 77.8429C189.47 77.0464 188.978 76.5059 188.88 76.6481C188.708 76.8473 188.511 77.5869 187.798 80.5455C186.668 85.3247 186.373 86.6333 186.152 87.5152C186.029 88.0557 185.832 88.8807 185.734 89.3643C185.537 90.1324 184.972 92.522 183.89 97.1875C183.399 99.2641 180.203 112.834 179.392 116.247C178.36 120.572 178.36 120.486 179.761 123.587C180.424 125.123 181.162 126.972 181.407 127.712C181.653 128.452 181.924 129.134 182.047 129.191C182.243 129.333 184.48 128.309 184.48 128.082C184.48 127.854 183.964 126.517 182.612 123.132L181.309 119.917L181.924 116.589C182.637 112.663 182.735 112.265 182.956 112.265C183.423 112.265 187.331 120.742 188.659 124.583C189.15 126.062 189.273 126.233 189.789 126.09C190.994 125.721 191.608 125.351 191.608 124.953C191.608 123.701 188.02 115.394 185.291 110.33L183.693 107.429L184.111 105.096C184.726 101.597 185.119 99.9184 185.365 99.8331C185.635 99.7478 188.29 104.043 190.429 107.998C192.493 111.867 194.214 115.622 195.664 119.519C196.303 121.226 196.893 122.734 196.992 122.819C197.188 123.075 199.474 122.278 199.474 121.937C199.474 121.596 197.754 117.016 196.451 113.972C194.116 108.424 188.929 99.0935 186.397 95.9357C186.152 95.6228 186.004 95.1677 186.053 94.9401C186.127 94.684 186.397 93.2901 186.717 91.8393C187.012 90.3884 187.356 89.1367 187.503 89.0229C187.798 88.8238 188.192 89.3359 191.264 93.7737C193.624 97.159 196.328 101.768 198.565 106.149C199.818 108.652 202.473 114.91 203.382 117.585C203.923 119.149 204.341 119.946 204.587 119.946C205.423 119.946 206.602 119.263 206.602 118.751C206.602 118.495 206.086 116.902 205.472 115.223C201.736 105.039 196.967 96.3909 190.084 87.1454C189.175 85.9221 188.413 84.642 188.413 84.3006C188.413 83.1342 189.224 80.4032 189.544 80.4032C189.74 80.4032 189.888 80.517 189.888 80.6877C189.888 80.83 190.896 82.167 192.125 83.6747C195.025 87.1454 196.992 88.3971 199.966 88.5962C202.276 88.7384 203.579 88.1695 204.98 86.3773C206.553 84.3575 206.971 83.1058 206.971 80.4032C206.971 78.2412 206.873 77.8145 206.185 76.2499C205.177 74.0309 203.751 72.5801 202.129 72.1818C200.752 71.8404 200.605 71.8404 199.622 72.1534Z" fill="white"/>
<path d="M101.496 82.1954C100.956 82.5368 100.218 83.0773 99.8987 83.3902C99.1121 84.1299 97.9323 85.9506 98.0797 86.1497C98.1535 86.235 98.9646 86.0359 99.8741 85.723C101.3 85.2394 102.258 85.154 107.052 85.154C110.517 85.154 113.246 85.2678 114.377 85.4954C116.613 85.9506 116.884 85.7514 116.171 84.1583C115.606 82.9066 115.114 82.3946 114.967 82.9066C114.917 83.1058 114.426 83.248 113.885 83.248C112.656 83.248 105.282 82.1954 103.979 81.8256C102.676 81.4558 102.652 81.4558 101.496 82.1954Z" fill="white"/>
<path d="M140.481 81.8541C139.326 82.1955 132.025 83.248 130.723 83.248C130.133 83.248 129.666 83.1058 129.666 82.9636C129.666 82.7929 129.543 82.6791 129.42 82.6791C129.051 82.6791 128.191 84.4428 128.191 85.2109C128.191 85.8368 128.265 85.8652 129.248 85.6945C134.238 84.8411 141.145 84.8127 144.438 85.6945C145.373 85.9506 146.257 86.0928 146.405 86.0359C146.872 85.8652 144.316 82.8498 143.136 82.167C141.931 81.4843 141.784 81.4843 140.481 81.8541Z" fill="white"/>
<path d="M33.4823 139.916C33.0153 142.05 32.5728 148.137 32.5237 152.803L32.4499 158.208L33.7035 158.293L34.9571 158.379L35.1292 153.315C35.2767 148.735 35.375 147.142 35.9158 141.822C36.0878 140.03 35.9649 139.831 34.3918 139.461C33.7281 139.29 33.6052 139.347 33.4823 139.916Z" fill="white"/>
<path d="M210.044 139.66C209.233 139.973 209.183 140.087 209.11 141.395C209.061 142.135 209.134 143.358 209.282 144.098C209.405 144.809 209.65 148.337 209.822 151.893L210.117 158.379L211.371 158.293L212.625 158.208L212.551 152.945C212.477 146.203 211.764 139.262 211.174 139.319C211.027 139.319 210.511 139.461 210.044 139.66Z" fill="white"/>
<path d="M40.9302 142.334C40.9302 142.476 40.7581 144.354 40.5615 146.544C40.3648 148.735 40.1928 152.348 40.1928 154.595V158.663L41.4955 158.578L42.7737 158.492L42.9212 153.087C43.0195 150.1 43.2162 146.687 43.3636 145.463C43.5111 144.24 43.634 143.159 43.634 143.102C43.634 142.619 40.9302 141.851 40.9302 142.334Z" fill="white"/>
<path d="M202.08 142.505C201.416 142.818 201.391 142.903 201.539 144.269C201.883 147.54 202.153 152.149 202.153 155.306L202.178 158.663L203.481 158.578L204.759 158.492L204.833 155.363C204.906 152.518 204.587 146.544 204.218 143.387C204.095 142.249 204.022 142.135 203.432 142.163C203.087 142.192 202.473 142.334 202.08 142.505Z" fill="white"/>
<path d="M48.5747 148.194C48.4272 149.958 48.3043 153.031 48.3043 155.022V158.635H49.6071H50.9344L51.1065 153.002C51.2048 149.93 51.3277 147.056 51.426 146.601C51.5489 145.919 51.4506 145.776 50.664 145.407C48.9434 144.553 48.8942 144.61 48.5747 148.194Z" fill="white"/>
<path d="M194.337 145.35L193.526 145.634L193.673 147.654C193.747 148.763 193.87 151.693 193.968 154.14L194.116 158.635H195.492H196.844L196.697 153.571C196.598 150.812 196.451 147.739 196.377 146.744C196.205 144.781 196.057 144.695 194.337 145.35Z" fill="white"/>
<path d="M86.8956 147.682C86.7727 148.024 86.6498 148.735 86.6007 149.275L86.5269 150.243L89.1079 150.442C90.5335 150.527 91.9838 150.698 92.3279 150.812C92.672 150.925 93.8273 151.75 94.8843 152.689C95.9412 153.599 96.949 154.368 97.1211 154.368C97.7602 154.368 98.006 153.287 97.5881 152.405C97.2686 151.665 96.0396 150.385 95.6463 150.385C95.5725 150.385 94.9334 150.072 94.2206 149.702C92.967 149.019 90.7548 148.166 88.2967 147.398C87.1414 147.056 87.0923 147.056 86.8956 147.682Z" fill="white"/>
<path d="M156.95 147.284C156.606 147.398 155.131 147.967 153.632 148.536C150.092 149.901 148.519 150.783 147.732 151.836C147.044 152.803 146.946 153.571 147.486 154.083C147.953 154.538 148.519 154.282 149.822 152.945C151.69 151.011 152.796 150.527 155.598 150.442C156.95 150.385 158.179 150.3 158.326 150.243C158.671 150.129 158.154 147.17 157.786 147.085C157.663 147.056 157.294 147.142 156.95 147.284Z" fill="white"/>
<path d="M56.2684 148.877C56.1455 149.617 56.0717 152.149 56.0472 154.51V158.777L57.3499 158.862L58.6281 158.948V157.298C58.6281 156.387 58.7018 154.026 58.8002 152.035L58.9477 148.422L58.284 148.109C56.5388 147.341 56.465 147.369 56.2684 148.877Z" fill="white"/>
<path d="M187.258 147.91C186.815 148.109 186.373 148.365 186.274 148.536C186.176 148.678 186.127 151.068 186.201 153.799L186.324 158.777L187.602 158.862C188.806 158.948 188.905 158.919 189.052 158.18C189.224 157.411 189.027 151.437 188.732 148.877C188.585 147.455 188.487 147.398 187.258 147.91Z" fill="white"/>
<path d="M62.8068 156.074V158.919H63.9129C65.1173 158.919 65.4369 158.436 64.3553 158.293C63.8146 158.236 63.6425 158.037 63.5933 157.44C63.5196 156.843 63.6179 156.672 64.0604 156.587C64.8224 156.473 64.9453 155.847 64.2324 155.733C63.8146 155.676 63.6425 155.42 63.5933 154.851C63.5196 154.168 63.5933 154.083 64.257 154.083C64.7732 154.083 65.019 153.941 65.019 153.656C65.019 153.343 64.724 153.23 63.9129 153.23H62.8068V156.074Z" fill="white"/>
<path d="M66.9363 153.543C66.6659 153.713 66.4938 154.168 66.4938 154.737C66.4938 155.904 66.7151 156.274 67.5508 156.501C68.0424 156.643 68.2145 156.871 68.2145 157.383C68.2145 158.18 67.6245 158.293 67.2558 157.554C67.0592 157.155 66.9609 157.127 66.6905 157.44C66.1497 158.066 66.7642 158.777 67.8704 158.777H68.829L68.9027 157.44C68.9765 156.188 68.9519 156.131 68.2636 155.932C67.5016 155.762 67.1329 154.993 67.5016 154.339C67.6491 154.026 67.772 154.055 68.1653 154.453C68.7552 155.079 68.9519 155.079 68.9519 154.424C68.9519 153.372 67.8704 152.888 66.9363 153.543Z" fill="white"/>
<path d="M70.4267 153.656C70.4267 153.884 70.5988 154.083 70.7954 154.083C71.0658 154.083 71.1641 154.595 71.2133 156.416C71.2625 157.952 71.3854 158.777 71.6066 158.862C71.8278 158.948 71.9015 158.379 71.9015 156.672C71.9015 154.68 71.9507 154.339 72.3932 154.083C73.1552 153.628 72.7373 153.23 71.5083 153.23C70.7217 153.23 70.4267 153.343 70.4267 153.656Z" fill="white"/>
<path d="M170.051 153.4C169.584 153.628 169.658 154.937 170.1 154.937C170.297 154.937 170.469 154.737 170.469 154.51C170.469 153.941 171.108 153.969 171.305 154.538C171.551 155.306 171.477 155.505 170.592 156.103C169.83 156.615 169.732 156.843 169.732 157.838V158.948L170.887 158.862C171.797 158.805 172.092 158.663 172.141 158.265C172.214 157.81 172.116 157.781 171.354 157.952C170.568 158.094 170.469 158.066 170.469 157.554C170.469 157.212 170.74 156.871 171.207 156.643C172.583 155.989 172.485 153.429 171.084 153.315C170.666 153.287 170.199 153.315 170.051 153.4Z" fill="white"/>
<path d="M173.91 153.77C173.64 154.368 173.591 157.241 173.812 158.293C173.96 158.862 174.107 158.948 174.992 158.862L176 158.777L176.074 156.416C176.123 154.908 176.049 153.884 175.852 153.628C175.434 153.031 174.23 153.116 173.91 153.77ZM175.336 156.16C175.41 157.924 175.361 158.066 174.894 158.066C174.451 158.066 174.402 157.895 174.402 156.274C174.402 155.278 174.476 154.368 174.574 154.254C174.992 153.77 175.262 154.424 175.336 156.16Z" fill="white"/>
<path d="M177.843 153.77C177.843 154.083 177.966 154.424 178.089 154.51C178.237 154.595 178.335 155.648 178.335 156.814C178.335 158.407 178.409 158.948 178.654 158.834C178.851 158.777 178.949 157.952 178.949 156.046C178.949 153.486 178.925 153.372 178.409 153.287C177.991 153.201 177.843 153.343 177.843 153.77Z" fill="white"/>
<path d="M181.162 153.514C180.916 153.969 180.99 158.407 181.26 158.72C181.383 158.862 181.85 158.919 182.292 158.862L183.128 158.777V156.074V153.372L182.219 153.287C181.727 153.23 181.26 153.343 181.162 153.514ZM182.464 154.851C182.391 155.705 181.899 156.018 181.702 155.363C181.481 154.766 181.752 154.083 182.194 154.083C182.44 154.083 182.514 154.339 182.464 154.851ZM182.514 157.355C182.514 158.151 181.924 158.322 181.678 157.611C181.481 157.042 181.702 156.643 182.169 156.643C182.366 156.643 182.514 156.928 182.514 157.355Z" fill="white"/>
<path d="M30.5572 166.515L30.4835 170.725L24.7071 170.867C19.7418 170.981 18.9307 171.066 19.0044 171.436C19.1027 171.92 21.7574 180.454 24.1417 187.936L25.7394 192.914L25.3707 194.337C25.1741 195.105 24.7562 196.527 24.4613 197.466C23.8713 199.344 21.0937 208.418 20.7742 209.556C20.6759 209.955 20.2334 211.349 19.8156 212.686C19.3977 214.023 19.0536 215.331 19.0536 215.616C19.0536 216.071 19.7664 216.099 31.5404 216.042L44.0027 215.957L44.0765 211.633L44.1502 207.309L67.0592 207.195C79.6444 207.11 92.967 206.911 96.6541 206.768C100.98 206.598 105.208 206.598 108.698 206.768C111.648 206.939 133.598 207.11 157.491 207.195L200.924 207.309L200.998 211.633L201.072 215.957L213.559 216.042C227.791 216.128 226.439 216.441 225.407 213.255C225.087 212.23 224.423 210.068 223.932 208.418C223.44 206.768 222.948 205.204 222.826 204.948C222.678 204.663 222.58 204.294 222.58 204.094C222.58 203.895 222.309 202.9 221.99 201.875C220.22 196.385 219.384 193.569 219.384 193.085C219.384 192.772 219.704 191.52 220.097 190.297C220.49 189.074 221.228 186.827 221.695 185.319C222.186 183.811 222.678 182.275 222.801 181.905C222.924 181.535 223.317 180.34 223.637 179.259C223.981 178.15 224.669 175.988 225.161 174.452C225.652 172.916 225.996 171.465 225.923 171.266C225.824 170.953 224.571 170.867 220.195 170.81L214.591 170.725L214.517 166.515L214.444 162.333H122.537H30.631L30.5572 166.515ZM109.166 166.799C109.043 167.283 107.814 174.395 107.445 176.898C107.248 178.093 107.494 178.264 108.133 177.439C109.288 175.959 113.197 174.992 115.36 175.675C116.761 176.13 118.064 177.524 118.776 179.345C119.219 180.54 119.342 181.336 119.342 183.271C119.342 188.619 117.916 193.057 115.188 196.214C113.762 197.864 113.32 198.206 111.869 198.718C110.96 199.059 109.78 199.315 109.288 199.315C107.764 199.315 105.921 198.519 104.938 197.466C104.446 196.926 104.004 196.47 103.954 196.47C103.93 196.47 103.832 196.982 103.733 197.608L103.561 198.746H101.988C101.128 198.746 100.415 198.632 100.415 198.49C100.415 198.319 100.857 195.532 101.398 192.289C101.963 189.045 103.119 182.076 104.004 176.841C104.889 171.607 105.675 167.084 105.724 166.799C105.823 166.401 106.142 166.316 107.568 166.316C109.092 166.316 109.288 166.373 109.166 166.799ZM183.153 167.88C184.013 169.416 182.809 171.522 181.039 171.522C179.785 171.522 179.269 170.839 179.416 169.473C179.613 167.994 180.424 167.169 181.702 167.169C182.538 167.169 182.833 167.311 183.153 167.88ZM63.0772 169.189C65.0436 170.27 65.6089 171.294 65.7318 174.082C65.8548 177.638 64.7241 180.113 62.1431 181.877C61.0861 182.588 60.7912 183.1 61.4057 183.1C61.8236 183.1 63.2492 184.721 63.6917 185.717C64.5766 187.68 64.2324 191.179 62.8805 193.853C62.0448 195.475 60.2504 197.238 58.4806 198.149C57.0795 198.86 56.8091 198.888 50.8115 199.031C47.3702 199.116 44.5435 199.116 44.4943 199.031C44.4452 198.945 44.6664 197.352 44.9859 195.475C45.3301 193.597 46.3624 187.396 47.3211 181.677C48.2797 175.959 49.1646 170.611 49.3121 169.786L49.5825 168.279L55.6293 168.364C61.5778 168.449 61.7252 168.449 63.0772 169.189ZM30.2131 173.513C30.4589 173.712 30.631 174.139 30.5572 174.452C30.4835 174.964 30.2131 174.992 26.354 175.078L22.249 175.134L21.9786 174.395C21.8066 173.797 21.8066 173.57 22.0524 173.371C22.6177 172.972 29.7215 173.086 30.2131 173.513ZM222.948 174.139V174.992H218.77H214.591L214.517 174.31C214.468 173.94 214.567 173.513 214.763 173.399C214.935 173.257 216.853 173.172 219.016 173.228L222.948 173.285V174.139ZM198.442 175.59C200.31 176.472 201.441 178.406 201.441 180.71C201.441 181.194 200.974 184.209 200.433 187.396C199.818 190.895 199.4 194.223 199.351 195.759L199.277 198.319L198.196 198.376C197.631 198.433 196.77 198.376 196.352 198.291C195.615 198.177 195.541 198.063 195.541 197.153V196.157L194.878 196.698C193.28 197.95 191.756 198.575 189.839 198.689C188.143 198.803 187.774 198.746 186.619 198.092C184.824 197.068 184.161 195.93 184.038 193.711C183.866 190.838 184.824 188.533 186.914 186.741C188.659 185.262 190.183 184.778 193.944 184.494C195.836 184.352 197.459 184.124 197.581 183.982C197.68 183.868 197.827 183.128 197.901 182.36C198.073 180.71 197.631 179.402 196.623 178.634C195.689 177.951 193.231 178.008 191.928 178.776C191.043 179.316 189.814 180.653 189.593 181.365C189.519 181.649 186.545 181.877 186.299 181.621C186.029 181.279 186.889 179.515 187.921 178.321C189.15 176.87 190.969 175.732 192.837 175.22C194.46 174.793 197.164 174.964 198.442 175.59ZM136.106 175.874C137.556 176.415 138.81 178.036 139.399 180.056C139.719 181.194 139.768 182.047 139.645 184.209C139.399 188.59 140.26 188.107 132.542 188.334C127.699 188.477 125.831 188.619 125.684 188.875C125.364 189.415 125.733 192.232 126.249 193.341C126.519 193.91 127.134 194.678 127.625 195.048C128.387 195.645 128.805 195.759 130.378 195.759C131.902 195.731 132.468 195.588 133.476 194.991C134.164 194.593 134.926 193.995 135.172 193.654C135.811 192.829 136.327 192.914 137.163 193.91L137.875 194.763L136.769 195.93C136.179 196.556 134.975 197.466 134.09 197.978C132.591 198.832 132.369 198.888 129.666 198.888C126.642 198.888 125.782 198.575 124.258 196.982C121.997 194.593 121.554 190.439 122.955 185.233C124.012 181.308 126.249 178.15 129.051 176.528C131.583 175.106 133.525 174.907 136.106 175.874ZM156.557 175.988C157.147 176.301 157.958 177.069 158.351 177.638C158.99 178.605 159.039 178.89 159.039 181.109C159.039 182.759 158.744 185.262 158.081 189.074C157.515 192.402 157.147 195.389 157.147 196.527L157.171 198.462H155.328H153.509V197.466C153.509 196.926 153.46 196.47 153.386 196.47C153.337 196.47 152.747 196.869 152.108 197.324C149.084 199.543 145.397 199.6 143.209 197.409C140.973 195.219 141.243 191.037 143.799 188.078C145.889 185.632 147.683 184.921 152.452 184.636L155.451 184.437L155.623 182.929C155.696 182.076 155.696 181.08 155.623 180.653C154.959 177.609 150.19 177.553 148.003 180.54C147.659 181.023 147.364 181.564 147.364 181.706C147.364 181.848 146.602 181.962 145.643 181.962C144.709 181.962 143.922 181.905 143.922 181.82C143.922 181.308 145.004 179.373 145.815 178.463C148.396 175.447 153.509 174.281 156.557 175.988ZM175.139 175.903C175.139 176.358 175.017 177.154 174.894 177.723L174.648 178.747L172.976 178.89C169.781 179.174 168.282 180.653 167.667 184.152C167.446 185.376 167.102 187.253 166.905 188.363C166.708 189.444 166.241 192.175 165.873 194.394L165.209 198.462H163.537C162.456 198.462 161.866 198.348 161.866 198.149C161.866 197.836 162.653 193.17 163.464 188.505C163.685 187.339 164.25 183.925 164.767 180.966L165.676 175.561L167.347 175.476L169.044 175.391L168.871 176.614L168.699 177.837L169.388 177.097C170.641 175.76 171.944 175.163 173.615 175.134C175.115 175.134 175.139 175.134 175.139 175.903ZM100.857 175.675C101.128 175.874 101.128 176.216 100.882 177.666L100.587 179.402H98.9892C97.0474 179.402 95.5971 180.113 94.5402 181.592C93.9256 182.474 93.7044 183.327 92.672 189.444C92.0329 193.227 91.4184 196.926 91.271 197.665L91.0251 199.031H89.3045C87.633 199.031 87.5839 199.002 87.7068 198.376C87.8297 197.836 89.5012 187.936 91.0497 178.69L91.4676 176.13L93.1391 176.045L94.8105 175.959L94.6385 177.183L94.4664 178.406L95.1547 177.666C96.3837 176.415 96.7278 176.187 97.9077 175.817C99.2842 175.391 100.415 175.334 100.857 175.675ZM181.948 176.045C181.825 176.614 181.211 180.227 178.605 195.759L178.187 198.319L176.541 198.405C175.09 198.49 174.894 198.433 174.894 197.978C174.894 197.694 175.336 194.906 175.852 191.776C176.393 188.647 177.155 183.982 177.598 181.393C178.015 178.804 178.409 176.415 178.482 176.045C178.581 175.476 178.728 175.419 180.326 175.419C182.022 175.419 182.071 175.447 181.948 176.045ZM82.7169 176.557C83.946 177.353 84.8309 178.918 85.0521 180.682C85.1996 181.677 84.2409 188.306 83.2086 193.54C83.0611 194.195 82.9628 195.702 82.9628 196.897V199.059L81.193 198.974L79.3986 198.888L79.3248 197.807L79.2511 196.755L78.5383 197.324C76.8914 198.689 75.1216 199.372 73.3026 199.4C70.5496 199.4 68.8536 198.348 67.9441 196.044C67.3542 194.564 67.3542 193.711 67.9933 191.549C69.2223 187.31 72.811 185.091 78.5629 185.091C81.5617 185.091 81.4879 185.177 81.4879 182.218C81.4879 179.885 80.4801 178.833 78.2187 178.833C76.0556 178.833 74.2859 179.914 73.4747 181.706C73.1306 182.474 73.0322 182.531 71.5328 182.531C69.8122 182.531 69.591 182.246 70.2547 180.966C71.3854 178.747 73.0077 177.297 75.4657 176.216C77.3338 175.419 81.193 175.59 82.7169 176.557ZM30.5081 178.093C30.5818 178.491 30.5818 178.947 30.4835 179.089C30.3851 179.288 29.0824 179.402 27.0422 179.402C23.9451 179.402 23.7238 179.373 23.478 178.804C22.8881 177.553 23.2322 177.41 26.8947 177.41H30.3606L30.5081 178.093ZM221.744 177.809C221.818 178.036 221.744 178.491 221.597 178.804C221.351 179.402 221.179 179.402 217.959 179.345C214.935 179.259 214.591 179.203 214.517 178.747C214.296 177.496 214.517 177.41 218.155 177.41C220.908 177.41 221.646 177.496 221.744 177.809ZM30.5081 182.36C30.5818 182.759 30.5818 183.214 30.4835 183.356C30.3851 183.555 29.279 183.669 27.6813 183.669C25.1495 183.669 25.0266 183.64 24.7316 182.986C24.1909 181.848 24.535 181.677 27.5338 181.677C30.3114 181.677 30.3606 181.677 30.5081 182.36ZM220.441 181.848C220.515 181.934 220.466 182.389 220.318 182.844L220.073 183.669H217.27H214.468V182.872C214.468 182.417 214.542 181.962 214.64 181.877C214.837 181.621 220.22 181.621 220.441 181.848ZM30.4835 187.083C30.4835 187.765 30.4343 187.794 28.5662 187.879C26.526 187.964 25.9361 187.708 25.9361 186.741C25.9361 186.258 26.1081 186.201 28.2221 186.286C30.4589 186.371 30.4835 186.371 30.4835 187.083ZM219.139 186.599C219.139 186.798 218.991 187.196 218.819 187.481C218.573 187.879 218.18 187.936 216.558 187.879C214.616 187.794 214.591 187.794 214.517 186.997L214.444 186.229H216.779C218.549 186.229 219.139 186.314 219.139 186.599ZM30.3114 190.667C30.4835 190.724 30.6064 191.065 30.5572 191.407C30.4835 191.976 30.3114 192.061 29.0578 192.146C27.7305 192.232 27.6321 192.175 27.4109 191.492C27.2634 191.065 27.2143 190.61 27.288 190.496C27.4109 190.269 29.5494 190.383 30.3114 190.667ZM216.582 190.496C217.664 190.496 217.688 190.525 217.615 191.264C217.541 192.004 217.467 192.061 216.213 192.146C214.689 192.26 214.345 191.976 214.567 190.923C214.689 190.383 214.837 190.212 215.107 190.326C215.329 190.411 215.992 190.496 216.582 190.496ZM30.3114 194.82C30.4835 195.02 30.6064 195.446 30.6064 195.816C30.6064 196.442 30.5326 196.47 28.7383 196.47C26.9193 196.47 26.8947 196.442 27.0668 195.816C27.1405 195.475 27.3372 195.02 27.4601 194.82C27.7796 194.394 29.9181 194.365 30.3114 194.82ZM217.664 195.02C218.229 196.271 218.008 196.47 216.189 196.47C214.665 196.47 214.468 196.413 214.468 195.93C214.468 194.707 214.714 194.479 216.091 194.479C217.123 194.479 217.442 194.593 217.664 195.02ZM219.065 199.6C219.556 200.709 219.261 200.88 216.926 200.908C214.788 200.965 214.714 200.937 214.567 200.282C214.296 199.031 214.517 198.888 216.705 198.917C218.573 198.974 218.794 199.031 219.065 199.6ZM30.5572 199.799C30.631 200.282 30.4835 200.538 29.9919 200.738C29.2299 201.079 26.0098 201.136 25.8623 200.794C25.7886 200.681 25.7886 200.225 25.8623 199.799L25.9852 199.002L28.2466 199.088C30.3606 199.173 30.4835 199.201 30.5572 199.799ZM30.4835 204.151C30.4835 204.862 30.4835 204.862 27.6813 205.005C26.1573 205.09 24.7808 205.062 24.6579 204.976C24.5104 204.862 24.4613 204.464 24.5596 204.037L24.7316 203.269L27.6076 203.355L30.4835 203.44V204.151ZM220.368 203.497C220.368 203.639 220.441 204.009 220.515 204.379L220.662 205.033L217.639 204.948L214.591 204.862L214.517 204.066L214.444 203.298H217.393C219.04 203.298 220.368 203.383 220.368 203.497ZM41.9871 207.878C42.1346 208.134 42.1592 208.561 42.0854 208.817C41.938 209.215 41.0039 209.272 32.5728 209.272H23.2322V208.561C23.2322 208.191 23.4289 207.764 23.6747 207.593C23.9205 207.423 27.4109 207.337 32.9169 207.366C40.7335 207.423 41.7659 207.48 41.9871 207.878ZM221.449 207.736C221.67 207.963 221.842 208.418 221.842 208.731C221.842 209.272 221.597 209.272 212.453 209.215C203.628 209.13 203.038 209.101 202.965 208.618C202.743 207.309 202.915 207.281 212.281 207.281C219.95 207.281 221.13 207.337 221.449 207.736ZM41.8151 211.775C41.938 211.889 42.0609 212.316 42.0854 212.743L42.1346 213.539H31.9337H21.7328L21.9049 212.885C22.2736 211.491 21.9786 211.519 32.0812 211.548C37.2923 211.576 41.6922 211.69 41.8151 211.775ZM221.818 211.775C222.752 211.946 222.948 212.088 223.096 212.743L223.268 213.539H213.092H202.915V212.885C202.915 211.548 202.989 211.548 212.133 211.576C216.853 211.576 221.228 211.69 221.818 211.775Z" fill="white"/>
<path d="M109.78 179.174C109.338 179.373 108.404 180.084 107.764 180.796L106.56 182.104L105.675 187.196C104.716 192.914 104.741 193.256 106.216 194.735C107.715 196.271 110.05 196.271 112.091 194.707C114.401 192.943 115.753 189.159 115.778 184.522C115.778 181.535 115.507 180.568 114.352 179.572C113.565 178.89 111.083 178.69 109.78 179.174Z" fill="white"/>
<path d="M51.8931 175.76C51.5244 178.008 51.1556 180.17 51.1065 180.596L50.959 181.393H54.007C57.8907 181.393 59.2672 180.966 60.7174 179.288C61.5286 178.321 61.8481 177.695 62.0694 176.5C62.4872 174.366 62.1431 173.172 60.8649 172.347C60.0046 171.778 59.5622 171.721 56.2438 171.721H52.5813L51.8931 175.76Z" fill="white"/>
<path d="M49.4596 190.126C48.968 193.028 48.6484 195.56 48.7222 195.702C48.8205 195.873 50.197 195.93 52.3601 195.845C56.0717 195.674 57.522 195.219 58.8493 193.825C60.4716 192.089 61.1599 187.964 60.0538 186.371C59.1443 185.034 58.284 184.807 54.1299 184.807H50.3445L49.4596 190.126Z" fill="white"/>
<path d="M192.272 187.396C190.551 187.68 188.757 188.676 188.093 189.7C187.823 190.126 187.553 191.094 187.479 191.89C187.381 193.17 187.43 193.398 188.093 194.166C188.511 194.65 189.224 195.105 189.765 195.219C191.707 195.617 194.927 194.138 195.935 192.345C196.279 191.748 197.016 188.391 197.016 187.452C197.016 187.026 194.583 186.997 192.272 187.396Z" fill="white"/>
<path d="M130.526 179.089C128.928 179.914 127.183 182.332 126.618 184.437L126.446 185.091H131.362H136.302V183.299C136.302 181.137 135.762 179.8 134.557 179.06C133.5 178.406 131.804 178.406 130.526 179.089Z" fill="white"/>
<path d="M150.559 187.566C147.486 188.107 146.061 189.131 145.52 191.151C145.053 192.943 145.274 194.052 146.233 194.849C147.855 196.186 151.468 195.332 153.263 193.199C153.853 192.516 154.148 191.776 154.394 190.439C154.984 187.282 155.008 187.367 152.968 187.396C151.985 187.424 150.903 187.481 150.559 187.566Z" fill="white"/>
<path d="M74.7283 188.306C73.1551 188.846 72.1719 189.671 71.6557 190.923C70.353 194.052 71.6066 196.072 74.7037 195.845C76.3998 195.731 77.9729 194.934 79.2019 193.569C79.8164 192.886 80.0377 192.345 80.2589 190.809C80.4064 189.785 80.5784 188.704 80.6522 188.42C80.7751 187.993 80.5539 187.936 78.2433 187.964C76.8422 187.993 75.2691 188.135 74.7283 188.306Z" fill="white"/>
<path d="M61.504 218.432C61.4303 218.944 60.9141 222.443 60.3487 226.198C59.7834 229.953 59.2672 233.424 59.1934 233.908C59.0705 234.79 59.0951 234.818 60.3241 235.131C61.037 235.302 61.6515 235.444 61.7252 235.444C61.8481 235.444 63.4459 231.632 65.2648 226.91C65.8547 225.43 66.3464 224.15 66.3955 224.093C66.4447 224.036 66.9854 224.207 67.6245 224.463C68.5586 224.833 68.829 224.833 69.001 224.577C69.296 224.008 69.124 223.723 68.0916 223.268C67.5508 223.041 67.0838 222.813 67.0346 222.756C66.9363 222.699 67.9932 219.798 68.1162 219.798C68.1653 219.798 69.1485 220.054 70.3284 220.367C71.5083 220.679 72.5161 220.879 72.5898 220.793C72.8602 220.509 72.2457 220.167 70.7954 219.826C69.9843 219.627 67.9441 219.115 66.248 218.66C61.1845 217.323 61.6761 217.351 61.504 218.432Z" fill="white"/>
<path d="M107.076 218.119C105.798 218.432 104.716 218.688 104.692 218.745C104.618 218.83 108.772 234.96 108.895 235.102C108.944 235.159 109.362 234.989 109.854 234.761L110.739 234.334L110.69 225.999L110.616 217.664L110.001 217.607C109.657 217.607 108.354 217.835 107.076 218.119Z" fill="white"/>
<path d="M139.817 218.404C138.244 219.115 136.622 220.879 135.811 222.785C135.295 223.979 135.196 224.605 135.196 226.91C135.196 229.299 135.27 229.783 135.86 231.034C137.679 235.017 141.415 236.752 145.102 235.33C147.585 234.363 149.822 230.835 149.822 227.905V226.91H148.593C147.929 226.91 147.364 226.938 147.364 226.995C147.364 227.052 147.241 227.848 147.093 228.759C146.233 234.221 142.767 236.724 139.916 233.993C136.253 230.494 136.745 221.305 140.727 218.944C143.111 217.522 146.356 219.143 145.643 221.362C145.323 222.329 144.758 222.728 144.193 222.358C143.627 222.017 143.504 221.049 143.996 220.85C144.144 220.793 144.217 220.623 144.119 220.509C143.75 220.082 143.185 220.651 143.185 221.448C143.185 222.386 143.849 223.211 144.561 223.211C145.2 223.211 146.085 222.244 146.282 221.362C146.897 218.546 143.234 216.896 139.817 218.404Z" fill="white"/>
<path d="M100.415 220.367C99.3579 221.59 100.071 223.78 101.496 223.78C102.529 223.78 103.119 223.041 103.119 221.732C103.119 219.968 101.472 219.143 100.415 220.367Z" fill="white"/>
<path d="M113.246 220.367C112.631 221.049 112.533 222.244 113.074 223.126C113.565 223.923 114.229 224.065 115.139 223.581C115.802 223.211 115.901 222.984 115.901 222.045C115.901 220.082 114.401 219.143 113.246 220.367Z" fill="white"/>
<path d="M172.559 222.671C170.248 223.041 169.978 223.154 169.978 223.78C169.978 224.179 169.806 224.349 169.388 224.349C168.355 224.349 168.331 225.459 169.363 225.857C169.486 225.914 169.437 227.222 169.166 229.214C168.945 231.006 168.749 232.827 168.749 233.253C168.749 234.989 170.838 236.127 171.772 234.932C172.534 233.965 172.165 232.599 171.157 232.599C170.568 232.599 170.592 233.054 171.207 233.253C171.772 233.424 171.87 234.249 171.33 234.477C170.862 234.704 170.223 234.107 170.223 233.453C170.223 233.168 170.74 231.774 171.354 230.323C172.411 227.877 172.509 227.735 173.124 227.877C173.714 228.019 173.861 227.905 174.476 226.625C174.845 225.857 175.139 225.146 175.139 225.06C175.139 224.975 174.869 224.918 174.525 224.918C173.837 224.918 173.763 224.463 174.279 223.666C174.476 223.354 174.648 222.927 174.648 222.728C174.648 222.329 174.672 222.329 172.559 222.671Z" fill="white"/>
<path d="M100.489 225.715C99.5054 226.454 98.6942 227.194 98.6942 227.393C98.6942 227.735 101.349 234.59 101.644 234.96C101.791 235.159 103.758 234.448 104.151 234.05C104.372 233.822 102.799 224.548 102.504 224.463C102.357 224.435 101.447 225.004 100.489 225.715Z" fill="white"/>
<path d="M113.369 225.772C112.336 226.54 111.476 227.279 111.476 227.422C111.476 227.763 114.18 234.676 114.45 234.989C114.647 235.245 116.761 234.477 117.007 234.05C117.13 233.765 115.679 224.861 115.434 224.577C115.36 224.463 114.426 225.004 113.369 225.772Z" fill="white"/>
<path d="M75.0233 225.146C74.5317 225.772 74.4825 226.654 74.9004 227.137C75.3182 227.621 76.326 227.564 76.4981 227.052C76.6947 226.426 76.3998 226.198 75.9573 226.625C75.5149 227.052 75.2199 226.824 75.4166 226.198C75.7607 225.203 77.0389 225.971 77.4076 227.393C77.5796 227.991 77.5059 228.047 76.6947 228.047C74.9004 228.047 73.4501 229.328 73.0323 231.234C72.8356 232.229 73.4501 234.021 74.2613 234.704C75.5395 235.757 78.145 235.643 79.1774 234.448C79.6936 233.822 79.7919 233.822 79.9885 234.249C80.2097 234.704 80.3327 234.676 81.365 234.021C83.1348 232.912 83.1594 232.77 82.0533 231.234C81.5125 230.494 80.4064 228.901 79.5461 227.706C78.7103 226.483 77.7763 225.288 77.4813 225.06C76.7685 224.463 75.5149 224.52 75.0233 225.146ZM78.5874 230.608C78.9561 231.461 79.2757 232.428 79.2757 232.77C79.2757 233.538 78.5874 234.249 77.6042 234.477C76.9651 234.619 76.7193 234.505 76.0557 233.765C75.3428 232.94 75.2937 232.741 75.392 231.461C75.5395 229.697 76.2277 228.844 77.4322 228.986C77.7517 229.015 78.145 229.555 78.5874 230.608Z" fill="white"/>
<path d="M93.0407 225.089C92.5737 225.316 91.9838 225.715 91.738 225.971C91.3201 226.426 91.2464 226.426 90.5581 225.942C90.0173 225.572 89.5012 225.459 88.8375 225.572C88.1001 225.686 87.8788 225.629 87.8788 225.288C87.8788 224.975 87.7068 224.89 87.3381 225.004C87.0185 225.089 85.9616 225.373 85.0029 225.658C82.9382 226.227 82.9873 225.572 84.5605 231.262L85.6174 235.017L86.4286 234.932C86.8956 234.875 87.3627 234.704 87.4856 234.59C87.6085 234.448 87.7559 232.713 87.8297 230.75C87.9034 228.787 88.0509 227.109 88.1492 227.023C88.6163 226.71 89.2799 227.251 89.7224 228.275C90.0173 228.986 90.1894 230.124 90.2386 231.888L90.2877 234.448L91.1235 234.363C92.8687 234.164 92.8687 234.164 92.672 232.059C92.5737 231.034 92.3033 229.498 92.0575 228.673L91.6151 227.137L92.4016 226.597C93.3111 225.942 93.7536 225.914 94.4418 226.483C95.4005 227.251 95.8429 230.352 95.3759 232.884L95.2038 233.737H96.6786C98.3255 233.737 98.4484 233.595 98.4484 231.66C98.4239 228.816 97.4406 226.255 95.9167 225.203C94.9826 224.52 94.196 224.491 93.0407 225.089Z" fill="white"/>
<path d="M120.055 225.032C119.293 225.459 118.899 226.71 119.342 227.308C119.735 227.877 120.792 227.905 120.989 227.336C121.185 226.739 120.915 226.483 120.497 226.853C120.128 227.222 119.833 227.023 119.833 226.426C119.833 225.772 120.989 226.028 121.53 226.796C122.316 227.962 122.193 228.332 121.062 228.332C119.022 228.332 117.621 229.84 117.621 232.03C117.621 234.221 119.071 235.728 121.185 235.728C122.144 235.728 123.521 235.046 123.84 234.42C124.11 233.879 124.504 233.908 124.504 234.448C124.504 234.676 124.577 234.875 124.7 234.875C125.02 234.875 127.453 233.168 127.453 232.94C127.453 232.741 123.103 226.341 122.439 225.544C121.923 224.947 120.694 224.662 120.055 225.032ZM123.299 231.262L124.012 233.196L123.398 233.908C121.947 235.586 119.833 234.363 119.833 231.859C119.833 230.352 120.792 229.1 121.874 229.242C122.488 229.328 122.66 229.555 123.299 231.262Z" fill="white"/>
<path d="M153.337 225.231C151.542 226.255 150.264 228.474 150.338 230.466C150.362 231.575 150.952 232.94 151.862 234.021C154.123 236.639 157.958 236.098 159.826 232.912C160.268 232.172 160.391 231.547 160.391 230.181C160.391 228.673 160.293 228.247 159.629 227.222C158.744 225.8 156.827 224.634 155.352 224.634C154.811 224.634 153.902 224.89 153.337 225.231ZM158.72 227.109C159.629 228.247 159.9 228.986 159.9 230.38C159.9 232.428 158.499 234.306 156.95 234.306C156.114 234.306 155.008 233.481 154.492 232.514C153.902 231.433 153.853 229.498 154.369 228.332C155.303 226.255 157.515 225.629 158.72 227.109Z" fill="white"/>
<path d="M162.702 225.032C161.669 225.572 161.129 226.511 161.129 227.763C161.129 229.185 161.669 229.925 163.587 231.034C165.455 232.115 166.045 232.684 166.045 233.424C166.045 234.562 163.685 234.989 162.825 233.993C162.21 233.282 162.333 232.77 163.169 232.656C163.931 232.542 164.078 231.746 163.341 231.746C162.726 231.746 161.866 232.713 161.866 233.424C161.866 234.334 163.021 235.159 164.25 235.159C165.578 235.159 166.241 234.79 166.561 233.822C166.93 232.656 166.438 231.404 165.16 230.323C163.882 229.271 163.488 228.389 163.832 227.336C164.078 226.568 165.234 225.772 166.143 225.772C166.954 225.772 167.569 226.54 167.47 227.45C167.421 228.076 167.274 228.19 166.659 228.19C166.094 228.19 165.848 227.991 165.553 227.336C165.234 226.54 165.184 226.54 165.111 227.109C164.914 228.645 166.266 229.641 167.397 228.787C167.888 228.417 168.011 228.076 168.011 227.194C168.011 226.284 167.888 225.999 167.225 225.459C166.241 224.634 163.857 224.406 162.702 225.032Z" fill="white"/>
<path d="M177.622 225.601C176.885 226.625 177.843 228.56 178.753 227.877C179.318 227.478 179.441 226.91 178.999 226.91C178.777 226.91 178.581 227.052 178.532 227.251C178.409 227.621 177.843 227.308 177.843 226.91C177.843 226.767 178.065 226.511 178.31 226.341C178.9 225.999 179.711 226.71 179.933 227.763C180.056 228.417 180.006 228.474 179.072 228.531C175.484 228.787 174.353 233.652 177.425 235.586C178.581 236.297 180.498 236.07 181.604 235.074C182.317 234.448 182.464 234.42 182.661 234.79C182.858 235.188 183.079 235.103 184.308 234.306C185.07 233.822 185.709 233.339 185.709 233.282C185.709 232.997 180.719 226.028 180.228 225.629C179.564 225.089 177.991 225.06 177.622 225.601ZM181.285 231.234C182.169 233.367 182.169 233.538 181.481 234.306C180.695 235.131 179.318 235.074 178.556 234.135C177.278 232.571 178.138 229.47 179.859 229.47C180.498 229.47 180.646 229.669 181.285 231.234Z" fill="white"/>
</svg>
